<!DOCTYPE svg PUBLIC "-//W3C//DTD SVG 1.1//EN" "http://www.w3.org/Graphics/SVG/1.1/DTD/svg11.dtd">
<!-- Uploaded to: SVG Repo, www.svgrepo.com, Transformed by: SVG Repo Mixer Tools -->
<svg version="1.1" id="Layer_1" xmlns="http://www.w3.org/2000/svg" xmlns:xlink="http://www.w3.org/1999/xlink" viewBox="0 0 512.004 512.004" xml:space="preserve" width="64px" height="64px" fill="#cc6498">
<g id="SVGRepo_bgCarrier" stroke-width="0"/>
<g id="SVGRepo_tracerCarrier" stroke-linecap="round" stroke-linejoin="round"/>
<g id="SVGRepo_iconCarrier"> <path style="fill:#cc6498;" d="M441.816,414.502V146.11c-0.163-55.577-45.176-100.59-100.751-100.751H170.936 C115.359,45.522,70.346,90.535,70.184,146.11v268.392h371.632V414.502z"/> <rect x="105.355" y="122.577" style="fill:#FFFFFF;" width="301.294" height="113.555"/> <g> <rect x="441.816" y="161.211" style="fill:#da8e63;" width="32.776" height="16"/> <rect x="37.409" y="161.211" style="fill:#da8e63;" width="32.776" height="16"/> </g> <g> <circle style="fill:#da8e63ff;" cx="136.557" cy="318.703" r="28.512"/> <circle style="fill:#da8e63ff;" cx="375.437" cy="318.703" r="28.512"/> </g> <polyline style="fill:#da8e63;" points="201.288,414.502 201.288,295.126 310.712,295.126 310.712,414.502 "/> <path d="M169.552,414.502v30.064c-0.031,9.977-8.111,18.058-18.088,18.088h-22.936c-9.993-0.008-18.097-8.095-18.128-18.088v-30.064 "/> <path d="M151.464,466.645h-22.936c-12.193-0.013-22.075-9.895-22.088-22.088v-30.056h8v30.064 c0.008,7.777,6.311,14.079,14.088,14.088h22.936c7.777-0.008,14.079-6.311,14.089-14.088v-30.064h8v30.064 C173.535,456.757,163.654,466.633,151.464,466.645z"/> <path d="M401.599,414.502v30.064c-0.031,9.977-8.111,18.058-18.088,18.088h-22.976c-9.977-0.031-18.058-8.111-18.088-18.088v-30.064 "/> <path d="M383.472,466.645h-22.936c-12.193-0.013-22.075-9.895-22.088-22.088v-30.056h8v30.064 c0.008,7.777,6.311,14.079,14.089,14.088h22.936c7.789,0.013,14.114-6.29,14.128-14.08c0-0.003,0-0.005,0-0.008v-30.064h8v30.064 C405.582,456.772,395.678,466.655,383.472,466.645z"/> <g> <path style="fill:#da8e63;" d="M311.32,67.878H202.672c-6.557,0.004-11.869,5.323-11.865,11.879 c0.004,6.552,5.313,11.861,11.865,11.865h108.64c6.557,0,11.872-5.315,11.872-11.872s-5.315-11.872-11.872-11.872l0,0 L311.32,67.878z"/> <rect x="248.004" y="122.577" style="fill:#da8e63;" width="16" height="113.545"/> </g> <rect x="474.585" y="134.971" width="37.419" height="68.472"/> <rect y="134.971" width="37.419" height="68.472"/> </g>
</svg>