<svg class="svg-icon" style="width: 1em;height: 1em;vertical-align: middle;fill: currentColor;overflow: hidden;" viewBox="0 0 1024 1024" version="1.1" xmlns="http://www.w3.org/2000/svg"><path d="M296.96 123.91c20.39-21.76 50.68-33.6 80.42-31.51 24.04 1.42 47.4 11.8 64.57 28.68 22.41 22.43 44.86 44.83 67.25 67.27 21.61-21.45 43.08-43.04 64.62-64.56 8.94-9.04 19.27-16.81 30.87-22.11 18.94-8.87 40.65-11.57 61.22-7.86 19.15 3.41 37.31 12.45 51.41 25.88 83.67 83.67 167.34 167.35 251.02 251.01 20.62 20.14 31.42 49.6 29.47 78.29-1.48 26.1-13.69 51.21-32.99 68.8L763.28 719.34c-33.24 33.42-66.83 66.47-100.1 99.85l-78.48 78.48c-8.86 9.37-19.15 17.48-30.81 23.08-30.41 15.06-68.33 13.47-97.29-4.25-12.9-7.4-22.75-18.69-33.22-28.99l-370.4-370.4c-5.96-5.77-11.45-12.07-15.95-19.06-13.5-20.47-18.97-46-15.4-70.23 2.97-21.12 12.86-41.18 27.81-56.39 82.51-82.5 165.01-165.02 247.52-247.52m36.51 29.49c-83.86 83.85-167.7 167.71-251.56 251.55-7.99 8.38-13.05 19.46-14.4 30.94-2.04 15.88 3.37 32.58 14.43 44.17 129.83 129.85 259.68 259.68 389.52 389.53 9.97 9.57 23.74 14.92 37.54 14.94 14.04 0.05 28.1-5.41 38.15-15.28 9.68-9.73 19.41-19.41 29.11-29.13 10.95-10.95 21.91-21.91 32.86-32.87 16.63-16.62 33.26-33.25 49.89-49.88 10.95-10.96 21.92-21.9 32.86-32.87 16.64-16.62 33.27-33.25 49.89-49.89 11.01-10.99 22-21.99 32.99-33 7.34-7.3 14.64-14.65 21.98-21.95 11.75-11.44 17.7-28.46 15.85-44.73-1.31-12.76-7.24-25.05-16.61-33.84-63.92-63.89-127.8-127.81-191.72-191.7-32.04 30.55-64.17 61.02-96.33 91.44-21.36 15.77-48.38 24.41-74.98 22.08-20.53-1.64-40.22-9.35-57.47-20.37-15.61-9.96-29.49-22.5-41.6-36.47-4.22-5.16-9.25-10.3-10.37-17.15-1.7-7.77 1.18-16.12 6.84-21.61 48.6-48.69 97.31-97.26 145.9-145.96-22.61-22.57-45.18-45.16-67.76-67.75-9.96-9.57-23.74-14.87-37.51-14.88-13.75-0.04-27.52 5.19-37.5 14.68m272.81 3.94c-76.01 76.02-152.05 152.03-228.06 228.07 14.76 14.07 32.27 26.59 52.71 30.37 16.57 3.23 33.95-1.68 47.6-11.25 35.24-33.43 70.47-66.86 105.68-100.31 3.14-2.82 5.93-6.19 9.82-8.02 8.58-4.58 19.95-2.96 26.89 3.86 69.86 69.83 139.69 139.69 209.54 209.53 13.45 13.68 22.84 31.26 26.79 50.03 24.72-24.73 49.45-49.45 74.18-74.18 4.39-4.3 8.69-8.79 11.9-14.08 10.13-16.13 10.85-37.57 1.92-54.39-4.37-8.91-11.97-15.46-18.81-22.4-80-79.99-159.99-159.99-239.98-239.98-6.76-6.58-15.14-11.53-24.27-13.94-19.88-5.69-42.28 1.27-55.91 16.69z" fill="#0C00BF" /><path d="M644.52 554.62c3.95-7.91 12.7-13.15 21.57-12.65 6.24 0.04 12.13 3.02 16.44 7.44 30.76 30.72 61.47 61.48 92.22 92.2-10.99 11.01-21.98 22.01-32.99 33-31.08-31.04-62.12-62.13-93.2-93.17-6.88-6.87-8.55-18.23-4.04-26.82zM561.01 639.02c2.77-6.73 8.87-12.02 15.99-13.66 7.37-1.8 15.7 0.14 21.2 5.46 31.22 31.23 62.45 62.45 93.67 93.68-10.94 10.97-21.91 21.91-32.86 32.87-31.1-31.07-62.17-62.16-93.25-93.24-6.43-6.43-8.32-16.78-4.75-25.11zM491.11 709.11c8.3-3.4 18.53-1.46 24.84 4.96 31.04 31.08 62.12 62.12 93.17 93.18-10.95 10.96-21.91 21.92-32.86 32.87-31.06-31.04-62.1-62.12-93.17-93.15-4.45-4.38-6.8-10.7-6.61-16.91 0.14-9.08 6.17-17.7 14.63-20.95z" fill="#FC4E7F" /></svg>