<!DOCTYPE svg PUBLIC "-//W3C//DTD SVG 1.1//EN" "http://www.w3.org/Graphics/SVG/1.1/DTD/svg11.dtd">
<!-- Uploaded to: SVG Repo, www.svgrepo.com, Transformed by: SVG Repo Mixer Tools -->
<svg width="64px" height="64px" viewBox="0 0 1024 1024" class="icon" version="1.1" xmlns="http://www.w3.org/2000/svg" fill="#000000">
<g id="SVGRepo_bgCarrier" stroke-width="0"/>
<g id="SVGRepo_tracerCarrier" stroke-linecap="round" stroke-linejoin="round"/>
<g id="SVGRepo_iconCarrier">
<path d="M715.52 177.92a53.76 53.76 0 0 1 53.632 49.92l0.128 3.84v85.2736a26.88 26.88 0 0 1-53.6064 2.9184l-0.1536-2.9184V231.68h-432.64v509.44h112.4864a26.88 26.88 0 0 1 2.944 53.6064l-2.944 0.1536H282.88a53.76 53.76 0 0 1-53.632-49.92l-0.128-3.84V231.68a53.76 53.76 0 0 1 49.92-53.632l3.84-0.128h432.64z" fill="#EF8919"/>
<path d="M537.6 318.72v53.76h-179.2v-53.76zM460.8 421.12v53.76h-102.4v-53.76zM460.8 536.32v53.76h-102.4v-53.76z" fill="#F6C37B"/>
<path d="M678.4 409.6a115.2 115.2 0 1 0 0 230.4 115.2 115.2 0 0 0 0-230.4z m0 51.2a64 64 0 1 1 0 128 64 64 0 0 1 0-128z" fill="#BA42D6"/>
<path d="M675.5584 641.7664l-0.768-0.64c-23.7568-20.1216-43.9296-27.904-63.7952-20.736C536.7808 647.1936 486.4 715.6992 486.4 793.6v25.6h384v-25.6c0-83.456-57.8048-155.6736-139.6736-177.9712-17.8944-4.864-33.408 2.688-50.7648 21.248l-4.4032 4.8896z m47.6928 24.8576l2.1504 0.64c45.2096 14.592 79.8464 51.9168 90.4192 97.152l0.768 3.584H540.2112l0.5376-2.6112c9.5232-41.9328 39.8848-77.3888 81.8432-94.6176l5.8112-2.2272c-2.5856 0.9472-1.9456 1.0752 1.8944 3.4048 7.5776 4.5312 17.6128 13.1328 29.696 25.6l21.3248 22.1184 17.8944-24.96c9.2928-12.9792 17.0752-22.0928 22.8864-27.136l1.152-0.9472z" fill="#BA42D6"/>
</g>
</svg>