<svg width="297" height="216" viewBox="0 0 297 216" fill="none" xmlns="http://www.w3.org/2000/svg">
<mask id="mask0_1_121" style="mask-type:luminance" maskUnits="userSpaceOnUse" x="79" y="14" width="138" height="138">
<path d="M158.07 14.5305L216.354 93.5153L137.37 151.799L79.0855 72.8145L158.07 14.5305Z" fill="white"/>
</mask>
<g mask="url(#mask0_1_121)">
<mask id="mask1_1_121" style="mask-type:luminance" maskUnits="userSpaceOnUse" x="98" y="34" width="99" height="99">
<path d="M133.155 125.732C133.116 125.719 133.077 125.707 133.041 125.694C132.98 125.673 132.922 125.652 132.862 125.631L132.744 125.589C132.685 125.569 132.625 125.548 132.566 125.526C132.513 125.507 132.253 125.414 132.253 125.414C132.2 125.394 132.146 125.375 132.092 125.355C132.036 125.334 131.982 125.314 131.927 125.292L131.858 125.266C131.707 125.209 131.554 125.152 131.405 125.093L131.321 125.061C131.268 125.039 131.215 125.02 131.162 124.998C131.111 124.979 131.061 124.959 131.013 124.938L130.851 124.873C130.799 124.853 130.747 124.832 130.697 124.812C130.644 124.79 130.397 124.688 130.397 124.688C130.343 124.665 130.287 124.642 130.233 124.62C130.179 124.596 130.124 124.573 130.069 124.55C130.069 124.55 129.824 124.445 129.771 124.421C129.717 124.398 129.462 124.286 129.462 124.286C129.412 124.264 129.363 124.242 129.313 124.22C129.249 124.19 129.183 124.16 129.118 124.131L129.081 124.115C129.081 124.115 128.909 124.037 128.856 124.012C128.795 123.984 128.733 123.954 128.672 123.926L128.626 123.904C128.626 123.904 128.465 123.829 128.402 123.799C128.328 123.765 128.255 123.729 128.173 123.691L128.127 123.667C128.069 123.638 128.01 123.611 127.95 123.582C127.88 123.547 127.808 123.511 127.736 123.475L127.723 123.469C127.65 123.433 127.576 123.397 127.503 123.359C127.427 123.322 127.351 123.283 127.275 123.243C127.202 123.207 127.129 123.17 127.055 123.131C126.982 123.094 126.911 123.057 126.838 123.018C126.838 123.018 126.685 122.937 126.613 122.9C126.538 122.859 126.464 122.82 126.39 122.78C126.318 122.74 126.244 122.702 126.172 122.662C126.097 122.622 126.024 122.582 125.95 122.541C125.878 122.5 125.806 122.461 125.734 122.42C125.66 122.379 125.587 122.338 125.514 122.296C125.443 122.257 125.371 122.214 125.299 122.173C125.226 122.131 125.153 122.089 125.082 122.047C125.032 122.018 124.984 121.99 124.936 121.961C124.953 122.045 124.968 122.129 124.984 122.213C125.299 123.856 125.635 125.461 125.991 127.024C128.599 128.314 131.32 129.375 134.117 130.185C133.78 128.743 133.459 127.259 133.155 125.732ZM125.802 43.8838C127.375 43.0065 129 42.2238 130.673 41.5397L133.139 44.8814C133.167 44.7361 133.195 44.5919 133.222 44.4477C133.785 41.5559 134.404 38.795 135.073 36.1826C135.103 36.0684 135.131 35.9552 135.161 35.8429C134.931 35.9039 134.702 35.9679 134.472 36.0313C131.894 36.7543 129.394 37.6827 126.982 38.8158C126.95 38.9447 126.917 39.0731 126.885 39.202C126.506 40.7234 126.143 42.2845 125.802 43.8838ZM106.383 100.924C106.353 100.854 106.323 100.784 106.293 100.713L106.254 100.622C106.231 100.568 106.209 100.516 106.187 100.463C106.159 100.397 106.133 100.333 106.106 100.267C106.106 100.267 106.017 100.05 105.998 100C105.97 99.9336 105.945 99.8668 105.918 99.8014L105.866 99.6692C105.847 99.6239 105.83 99.5798 105.812 99.5327C105.782 99.4559 105.751 99.3778 105.722 99.301C105.722 99.301 105.647 99.1048 105.633 99.0669C105.578 98.9226 105.525 98.7794 105.472 98.6355L105.396 98.4255C105.359 98.3266 105.324 98.2286 105.29 98.1313C105.275 98.0902 105.196 97.8594 105.196 97.8594C105.172 97.7932 105.148 97.7249 105.127 97.6591C105.11 97.6122 105.031 97.3709 105.031 97.3709C105.009 97.3083 104.988 97.2469 104.968 97.1828C104.949 97.1276 104.932 97.0719 104.914 97.0164L104.878 96.9071C104.856 96.8413 104.836 96.7741 104.814 96.7065C104.797 96.652 104.779 96.5949 104.763 96.5395C104.763 96.5395 104.686 96.2947 104.667 96.2301C104.647 96.166 104.584 95.9512 104.584 95.9512C104.563 95.8848 104.543 95.817 104.524 95.7505C104.504 95.6846 104.447 95.4806 104.447 95.4806C104.426 95.4111 104.407 95.3393 104.387 95.27C104.365 95.1913 104.344 95.1131 104.321 95.0322C104.299 94.95 104.277 94.8689 104.255 94.7879C104.236 94.7177 104.193 94.5491 104.193 94.5491C104.171 94.4679 104.148 94.3854 104.128 94.3033C104.109 94.2242 104.089 94.1447 104.069 94.0657C104.048 93.9826 104.026 93.8995 104.007 93.8183C103.988 93.7386 103.969 93.6573 103.95 93.5785C103.93 93.4959 103.911 93.4132 103.891 93.33C103.873 93.2516 103.855 93.1706 103.838 93.0914C103.819 93.0087 103.799 92.9255 103.782 92.8434C103.764 92.7624 103.746 92.6818 103.729 92.602L103.677 92.3538C103.659 92.2732 103.643 92.1928 103.627 92.1113C103.609 92.0287 103.593 91.945 103.578 91.8628C103.562 91.7824 103.546 91.7017 103.531 91.6203C103.515 91.5369 103.499 91.4547 103.483 91.3713C103.468 91.2899 103.453 91.2083 103.44 91.1282C103.423 91.0447 103.41 90.961 103.395 90.8775C103.381 90.7965 103.367 90.7161 103.353 90.636C103.338 90.551 103.326 90.4678 103.312 90.3832C103.299 90.302 103.285 90.2217 103.273 90.14C103.259 90.0581 103.248 89.9761 103.234 89.8874L103.228 89.842C103.217 89.7756 103.208 89.7106 103.198 89.6455C103.187 89.5719 103.176 89.4975 103.167 89.4238L103.162 89.3895C103.162 89.3895 103.138 89.2172 103.129 89.1491C103.12 89.0834 103.089 88.8396 103.089 88.8396C103.079 88.7763 103.072 88.7146 103.065 88.6517C103.056 88.5762 103.047 88.5003 103.038 88.4251L103.034 88.3898C103.034 88.3898 103.014 88.2101 103.007 88.153C102.999 88.0836 102.992 88.0133 102.985 87.9436C102.985 87.9436 102.959 87.7055 102.955 87.6554C102.946 87.5799 102.94 87.5055 102.932 87.4303L102.928 87.3756C102.928 87.3756 102.91 87.2005 102.908 87.1553C102.9 87.0742 102.894 86.9944 102.887 86.9145C102.887 86.9145 102.869 86.6918 102.865 86.6537C102.853 86.4887 102.841 86.3231 102.83 86.1575L102.817 85.9356C102.811 85.8412 102.804 85.7488 102.8 85.6544C102.797 85.6117 102.787 85.3978 102.787 85.3978C102.783 85.3155 102.779 85.2349 102.775 85.1522C102.773 85.1049 102.763 84.8642 102.763 84.8642C102.76 84.7922 102.758 84.7207 102.755 84.6487C102.753 84.5965 102.748 84.3626 102.748 84.3626C102.747 84.2896 102.744 84.218 102.743 84.1455C102.742 84.0873 102.737 83.8429 102.737 83.8429C102.737 83.7762 102.735 83.7086 102.735 83.64C102.733 83.5791 102.734 83.5185 102.734 83.4564L102.733 83.3783C102.733 83.2974 102.732 83.2166 102.733 83.1354C102.732 83.0708 102.734 82.8549 102.734 82.8549C102.735 82.7802 102.735 82.7048 102.737 82.6298C102.736 82.5584 102.738 82.4864 102.74 82.4145C102.74 82.4145 102.74 82.3643 102.741 82.3517C105.571 84.3908 108.422 86.8013 111.246 89.5442C111.084 89.8124 110.924 90.0817 110.769 90.3465C108.525 94.2006 107.077 97.7833 106.437 101.05L106.383 100.924ZM122.336 122.723C122.162 121.812 121.993 120.893 121.832 119.964C121.79 119.934 121.742 119.899 121.717 119.883C121.664 119.846 121.612 119.808 121.56 119.77C121.56 119.77 121.352 119.623 121.311 119.592C121.26 119.555 121.207 119.517 121.155 119.478L121.092 119.431C121.092 119.431 120.946 119.324 120.908 119.296C120.837 119.244 120.766 119.189 120.695 119.137L120.658 119.109C120.583 119.052 120.507 118.996 120.431 118.938C120.326 118.857 120.222 118.776 120.116 118.695C120.081 118.667 119.908 118.53 119.908 118.53C119.846 118.482 119.783 118.434 119.723 118.385C119.685 118.356 119.482 118.191 119.482 118.191C119.432 118.151 119.382 118.11 119.333 118.071C119.289 118.035 119.244 117.998 119.2 117.962L119.102 117.881C119.048 117.838 118.997 117.795 118.944 117.752C118.901 117.716 118.86 117.681 118.817 117.644L118.724 117.567C118.67 117.521 118.616 117.475 118.562 117.428C118.527 117.399 118.493 117.369 118.458 117.34C119.401 117.44 120.388 117.485 121.419 117.476C121.211 116.168 121.016 114.844 120.835 113.504C119.801 113.491 118.822 113.409 117.903 113.261C115.858 112.931 114.19 112.274 112.925 111.302L119.982 106.095C119.869 104.937 119.768 103.768 119.675 102.593C119.645 102.22 119.616 101.844 119.588 101.466L110.575 108.117C110.019 106.621 109.884 104.835 110.171 102.783C110.6 99.7232 111.928 96.2509 114.121 92.4617C115.927 94.376 117.691 96.4024 119.393 98.5231C119.39 98.4602 119.385 98.3965 119.382 98.3332C119.261 96.2577 119.17 94.1584 119.109 92.0498C118.186 91.0081 117.249 89.9953 116.301 89.0106C116.912 88.1193 117.559 87.2243 118.239 86.3322C118.491 86.0028 118.748 85.6722 119.009 85.3432C119.01 85.2932 119.009 85.243 119.009 85.1929C119.01 84.5268 119.012 83.8597 119.019 83.1895C119.026 82.5197 119.035 81.8525 119.046 81.1872C119.059 80.4961 119.074 79.803 119.094 79.1104C118.008 80.321 116.978 81.5367 116.007 82.7557C115.104 83.8933 114.252 85.0318 113.452 86.1715C110.014 82.8865 106.526 80.0626 103.062 77.7594C103.59 73.4017 104.757 69.1527 106.506 65.1522C107.61 62.6301 108.945 60.2058 110.496 57.9147L119.516 70.1387C119.564 69.4419 119.613 68.7472 119.667 68.0555C119.769 66.7402 119.883 65.4229 120.008 64.1344L112.973 54.6008C115.329 51.7328 118.029 49.167 121.009 46.9679C121.548 46.5701 122.095 46.1848 122.652 45.8126C122.79 45.1113 122.931 44.4152 123.078 43.7258C123.312 42.6195 123.556 41.5222 123.809 40.4478C122.037 41.4438 120.319 42.5556 118.658 43.7812C115.026 46.4608 111.833 49.5645 109.112 53.0525C107.562 55.0412 106.162 57.1548 104.925 59.3867C104.741 59.7183 104.56 60.053 104.385 60.3878C101.411 66.0497 99.5966 72.1592 98.9899 78.5675C97.8534 90.5668 101.173 102.522 108.335 112.229C109.668 114.035 111.135 115.762 112.698 117.364C113.086 117.761 113.486 118.157 113.887 118.542C114.154 118.798 114.429 119.054 114.702 119.303C115.276 119.828 115.876 120.351 116.485 120.857C118.488 122.517 120.623 124.013 122.86 125.332C122.68 124.471 122.504 123.6 122.336 122.723ZM125.447 78.1762L129.56 83.7498C129.561 83.5966 129.563 83.4425 129.564 83.2894C129.571 82.6259 129.578 81.9664 129.591 81.3088C129.614 79.9499 129.649 78.6004 129.694 77.2611L128.338 75.4234C128.825 74.9779 129.321 74.534 129.82 74.0945C129.905 72.2541 130.011 70.4332 130.136 68.6385C128.707 69.8074 127.316 71.0023 125.975 72.2207L122.424 67.4087C122.4 67.6926 122.378 67.9777 122.356 68.2633C122.222 69.9972 122.109 71.7522 122.015 73.5249L123.072 74.957C122.673 75.3491 122.28 75.7411 121.892 76.1358C121.824 77.8203 121.773 79.5204 121.742 81.2349C121.738 81.5238 121.733 81.8131 121.729 82.1029C122.309 81.4506 122.907 80.7984 123.523 80.1478C124.146 79.4884 124.788 78.8316 125.447 78.1762ZM130.546 107.476C129.272 105.4 127.91 103.339 126.466 101.31L129.905 98.7728C129.818 97.2027 129.748 95.6155 129.694 94.0087L124.116 98.1247C123.398 97.1881 122.67 96.2675 121.93 95.3623C121.972 96.3068 122.02 97.2444 122.075 98.1765C122.157 99.5916 122.253 100.994 122.363 102.381C122.412 102.998 122.463 103.612 122.517 104.224L123.279 103.662C125.345 106.571 127.239 109.544 128.93 112.531C127.02 112.969 125.221 113.259 123.543 113.403C123.725 114.731 123.919 116.041 124.127 117.331C125.959 117.159 127.905 116.835 129.963 116.357C130.261 116.288 130.565 116.215 130.87 116.138C131.2 116.786 131.519 117.431 131.827 118.073C131.319 114.686 130.889 111.146 130.546 107.476ZM129.564 83.2894C129.571 82.6259 129.578 81.9664 129.591 81.3088C129.614 79.9499 129.649 78.6004 129.694 77.2611L128.338 75.4234C128.825 74.9779 129.321 74.534 129.82 74.0945C129.905 72.2541 130.011 70.4332 130.136 68.6385C128.707 69.8074 127.316 71.0023 125.975 72.2207L122.424 67.4087C122.4 67.6926 122.378 67.9777 122.356 68.2633C122.222 69.9972 122.109 71.7522 122.015 73.5249L123.072 74.957C122.673 75.3491 122.28 75.7411 121.892 76.1358C121.824 77.8203 121.773 79.5204 121.742 81.2349C121.738 81.5238 121.733 81.8131 121.729 82.1029C122.309 81.4506 122.907 80.7984 123.523 80.1478C124.146 79.4884 124.788 78.8316 125.447 78.1762L129.56 83.7498C129.561 83.5966 129.563 83.4425 129.564 83.2894ZM164.769 124.793L151.767 107.173C154.873 105.334 157.954 103.288 160.942 101.083C163.93 98.8787 166.793 96.5383 169.467 94.1121L182.469 111.732C180.112 114.6 177.412 117.166 174.432 119.365C171.452 121.564 168.204 123.387 164.769 124.793ZM152.779 127.86C148.44 128.351 144.036 128.213 139.717 127.433C138.539 123.445 136.869 119.279 134.743 115.025C136.068 114.597 137.407 114.118 138.761 113.59C141.186 112.642 143.651 111.532 146.144 110.267C146.86 109.904 147.577 109.528 148.296 109.14L160.872 126.182C158.225 126.989 155.515 127.549 152.779 127.86ZM140.046 91.2896L157.746 78.2285L167.103 90.9094C164.445 93.3387 161.586 95.6864 158.59 97.8968C155.595 100.107 152.508 102.147 149.403 103.97L140.046 91.2896ZM171.325 68.2082C173.804 71.4449 176.425 74.5024 179.14 77.3223C176.661 80.9443 173.591 84.5823 169.994 88.1566L160.932 75.8771L171.325 68.2082ZM184.866 58.2166C185.422 59.7114 185.557 61.4979 185.27 63.5499C184.842 66.6096 183.513 70.0819 181.321 73.8711C178.965 71.3746 176.682 68.6872 174.513 65.8561L184.866 58.2166ZM189.058 65.4085C189.089 65.4768 189.116 65.5446 189.146 65.6139L189.162 65.6536C189.162 65.6536 189.231 65.8185 189.254 65.8693C189.281 65.9333 189.306 65.9966 189.332 66.0592L189.357 66.1199C189.357 66.1199 189.425 66.2876 189.444 66.3338C189.472 66.4005 189.497 66.4668 189.523 66.5345L189.576 66.6649C189.594 66.7089 189.612 66.7543 189.629 66.8001C189.658 66.8711 189.685 66.9446 189.713 67.0162C189.713 67.0162 189.795 67.2293 189.809 67.2672C189.861 67.4053 189.912 67.543 189.963 67.6817C189.983 67.7359 190.058 67.9401 190.058 67.9401C190.089 68.0277 190.119 68.114 190.151 68.2016C190.166 68.2427 190.248 68.4787 190.248 68.4787L190.315 68.6737C190.331 68.7237 190.408 68.9534 190.408 68.9534C190.43 69.0189 190.452 69.0832 190.473 69.1482C190.491 69.199 190.568 69.4438 190.568 69.4438C190.589 69.5038 190.608 69.5657 190.626 69.6251C190.644 69.6809 190.662 69.7366 190.679 69.7924L190.715 69.9116C190.735 69.9744 190.755 70.0381 190.774 70.1027C190.792 70.1612 190.857 70.3785 190.857 70.3785C190.877 70.4459 190.897 70.513 190.917 70.5823C190.936 70.6469 190.955 70.7112 190.974 70.7769L190.995 70.8544L191.054 71.0628C191.075 71.1345 191.094 71.2059 191.114 71.2783L191.12 71.3021C191.143 71.3828 191.164 71.464 191.186 71.5449C191.206 71.6187 191.224 71.6942 191.244 71.7684L191.249 71.7856C191.271 71.8661 191.293 71.9474 191.312 72.0283C191.333 72.1086 191.353 72.1889 191.373 72.2699C191.393 72.3524 191.414 72.4324 191.434 72.5137C191.453 72.5942 191.473 72.6755 191.492 72.7556C191.511 72.8369 191.53 72.9188 191.549 73.0015C191.568 73.0812 191.586 73.1631 191.604 73.2441C191.624 73.3254 191.642 73.4073 191.66 73.4894C191.677 73.5704 191.695 73.651 191.712 73.733C191.729 73.8136 191.747 73.8962 191.765 73.9768C191.782 74.0596 191.798 74.14 191.814 74.2216C191.832 74.3041 191.847 74.387 191.864 74.4682C191.88 74.5504 191.895 74.6311 191.911 74.7133C191.926 74.7959 191.942 74.8781 191.957 74.9603C191.972 75.0416 191.988 75.1246 192.002 75.2046C192.017 75.2868 192.032 75.37 192.046 75.4532C192.06 75.5354 192.075 75.6168 192.088 75.6986C192.1 75.772 192.113 75.8432 192.124 75.9154L192.13 75.9479C192.142 76.0289 192.155 76.1118 192.168 76.1928C192.183 76.276 192.194 76.3594 192.207 76.4439L192.213 76.4828C192.223 76.551 192.234 76.62 192.243 76.6888C192.254 76.7595 192.264 76.831 192.274 76.9018L192.286 76.9956C192.296 77.0588 192.304 77.1214 192.313 77.1856C192.322 77.2507 192.329 77.3173 192.337 77.3833C192.337 77.3833 192.368 77.6219 192.377 77.6824C192.385 77.749 192.392 77.8157 192.4 77.8831L192.415 78.0051C192.421 78.0641 192.428 78.1209 192.434 78.1799C192.441 78.2415 192.447 78.3024 192.454 78.3629L192.469 78.5109C192.475 78.5668 192.481 78.6224 192.487 78.6804C192.494 78.744 192.5 78.8085 192.505 78.873L192.52 79.023C192.525 79.0745 192.53 79.1265 192.534 79.1783C192.541 79.2506 192.546 79.321 192.552 79.3931C192.552 79.3931 192.572 79.6365 192.576 79.6792C192.588 79.8441 192.601 80.0088 192.611 80.1745C192.614 80.2152 192.628 80.4467 192.628 80.4467C192.632 80.5238 192.638 80.5985 192.641 80.6762C192.645 80.7242 192.656 80.9737 192.656 80.9737C192.66 81.0426 192.663 81.1108 192.666 81.1793C192.669 81.2322 192.671 81.2845 192.672 81.3377L192.678 81.484C192.681 81.5501 192.683 81.6158 192.685 81.6828C192.687 81.74 192.689 81.7976 192.69 81.8535L192.693 81.9774C192.696 82.0472 192.697 82.1166 192.699 82.1855C192.701 82.2445 192.704 82.485 192.704 82.485C192.704 82.5535 192.707 82.6225 192.707 82.691C192.707 82.7574 192.708 82.826 192.708 82.8924L192.708 82.9631C192.708 83.0404 192.709 83.1184 192.709 83.1956C192.709 83.2642 192.708 83.3315 192.708 83.3985L192.708 83.4445C192.707 83.5299 192.707 83.6157 192.705 83.7013C192.705 83.7744 192.704 83.8473 192.702 83.9196C192.702 83.9196 192.701 83.9707 192.7 83.9811C189.87 81.942 187.019 79.5315 184.195 76.7886C184.358 76.5204 184.518 76.2511 184.672 75.9863C186.916 72.1322 188.365 68.5495 189.004 65.2828L189.058 65.4085ZM184.945 108.418L172.369 91.3758C176.119 87.6938 179.346 83.9312 181.989 80.1613C185.427 83.4471 188.915 86.2711 192.38 88.5728C191.517 95.6762 188.961 102.492 184.945 108.418ZM172.162 62.6707C170.097 59.7626 168.202 56.7888 166.511 53.8019C170.778 52.8244 174.488 52.5789 177.538 53.0716C179.584 53.4023 181.251 54.0586 182.516 55.0306L172.162 62.6707ZM158.582 72.6917L149.521 60.4122C153.997 58.0289 158.378 56.1683 162.57 54.8679C164.464 58.2933 166.613 61.6998 168.975 65.0228L158.582 72.6917ZM160.207 39.9472C160.219 39.9498 160.232 39.9536 160.245 39.9575C160.245 39.9575 160.405 40.0038 160.473 40.0238C160.559 40.0493 160.645 40.075 160.73 40.1C160.73 40.1 160.899 40.1518 160.957 40.1692C161.029 40.1913 161.101 40.2151 161.174 40.2366C161.174 40.2366 161.384 40.3029 161.44 40.3211C161.507 40.3414 161.573 40.3634 161.64 40.3859C161.64 40.3859 161.866 40.4585 161.92 40.4775C161.986 40.4988 162.052 40.5223 162.119 40.5448L162.177 40.5641C162.177 40.5641 162.348 40.6208 162.397 40.638L162.601 40.709L162.659 40.7295C162.659 40.7295 162.825 40.7884 162.873 40.805L163.078 40.8797C163.078 40.8797 163.305 40.9609 163.346 40.9766C163.425 41.0058 163.502 41.0359 163.579 41.0648L163.817 41.1542C163.973 41.2131 164.127 41.2739 164.281 41.3345C164.316 41.3488 164.534 41.4374 164.534 41.4374C164.605 41.4655 164.676 41.4935 164.747 41.5219C164.792 41.5407 165.027 41.6384 165.027 41.6384C165.088 41.6637 165.15 41.6885 165.211 41.7139C165.259 41.7348 165.496 41.8371 165.496 41.8371C165.554 41.8613 165.613 41.8864 165.672 41.9118C165.724 41.9352 165.778 41.9579 165.828 41.9807L165.955 42.0366C166.015 42.0626 166.072 42.089 166.131 42.1141C166.191 42.1408 166.396 42.2351 166.396 42.2351C166.46 42.2632 166.523 42.2919 166.588 42.3219C166.645 42.3486 166.702 42.3749 166.76 42.4024L166.846 42.4426C166.912 42.4733 166.976 42.5028 167.04 42.5347C167.103 42.5634 167.165 42.5931 167.226 42.6234L167.278 42.6486C167.35 42.6828 167.421 42.7176 167.492 42.7524C167.559 42.7836 167.623 42.8166 167.689 42.8496L167.715 42.861C167.789 42.8994 167.865 42.9357 167.94 42.9745C168.015 43.0113 168.088 43.0495 168.163 43.0867C168.237 43.124 168.312 43.1624 168.386 43.2018C168.459 43.2396 168.534 43.2787 168.607 43.3169C168.681 43.3559 168.755 43.3949 168.83 43.4344C168.904 43.4734 168.976 43.5122 169.05 43.5512C169.124 43.5925 169.197 43.6303 169.269 43.6709C169.343 43.7104 169.416 43.7503 169.49 43.7913C169.562 43.8319 169.636 43.8731 169.708 43.9137C169.781 43.9538 169.854 43.9956 169.926 44.0362C169.998 44.0762 170.071 44.118 170.143 44.1605C170.215 44.2015 170.288 44.2434 170.359 44.2862C170.432 44.3276 170.503 44.3693 170.575 44.4121C170.647 44.4546 170.719 44.4964 170.791 44.5388C170.863 44.5813 170.933 44.625 171.005 44.6675C171.076 44.7103 171.148 44.755 171.219 44.7984C171.286 44.8402 171.355 44.8816 171.423 44.9257L171.443 44.9362C171.51 44.9771 171.576 45.02 171.644 45.0623C171.709 45.1026 171.776 45.1446 171.841 45.1871L171.876 45.208C171.939 45.2484 172.003 45.2888 172.066 45.3311C172.131 45.3714 172.196 45.414 172.261 45.4569L172.312 45.4895C172.369 45.5264 172.428 45.5649 172.484 45.602C172.54 45.6399 172.595 45.6757 172.65 45.7123L172.743 45.7745C172.796 45.8092 172.848 45.8442 172.901 45.8793C172.953 45.9161 173.007 45.9533 173.061 45.9892L173.11 46.0233C173.11 46.0233 173.265 46.1288 173.313 46.1621C173.365 46.1989 173.418 46.2348 173.469 46.2715L173.524 46.3095C173.524 46.3095 173.678 46.4168 173.723 46.4489C173.774 46.4851 173.824 46.5217 173.874 46.5571L173.937 46.6012C173.937 46.6012 174.087 46.7101 174.13 46.7407C174.183 46.7796 174.238 46.8183 174.291 46.8592L174.35 46.9027C174.35 46.9027 174.494 47.0077 174.533 47.0364C174.599 47.0861 174.665 47.1366 174.732 47.1862L174.783 47.2237C174.857 47.2794 174.932 47.3369 175.005 47.3932C175.113 47.4739 175.219 47.5553 175.325 47.638C175.36 47.6656 175.549 47.8145 175.549 47.8145C175.606 47.8578 175.663 47.903 175.718 47.9482C175.756 47.9769 175.952 48.1356 175.952 48.1356C176.005 48.1787 176.057 48.2201 176.109 48.2625C176.151 48.2959 176.335 48.448 176.335 48.448C176.389 48.4919 176.443 48.5358 176.496 48.5804C176.541 48.6176 176.721 48.7695 176.721 48.7695C176.774 48.8144 176.826 48.8596 176.879 48.9044C176.914 48.9335 176.949 48.9639 176.983 48.9932C173.673 48.6406 169.823 48.9684 165.479 49.9754C165.18 50.0452 164.875 50.1187 164.571 50.1945C162.783 46.6879 161.321 43.2523 160.207 39.9472ZM188.852 109.725C189.436 108.821 189.991 107.894 190.517 106.946C191.401 105.352 192.192 103.721 192.887 102.055C194.786 97.5168 195.98 92.7312 196.451 87.7653C197.588 75.7661 194.269 63.8105 187.106 54.1035C186.107 52.7495 185.026 51.4336 183.895 50.191C183.121 49.3421 182.303 48.5062 181.465 47.7068C181.259 47.5123 181.049 47.3133 180.836 47.1192C179.478 45.8704 178.058 44.7045 176.579 43.6264C175.507 42.8414 174.404 42.1025 173.271 41.4097C171.249 40.171 169.132 39.08 166.934 38.1429C166.771 38.0742 166.606 38.0049 166.441 37.9378C166.131 37.8086 165.817 37.6825 165.501 37.5606C165.121 37.4114 164.741 37.2686 164.359 37.1309C164.259 37.0954 164.159 37.0604 164.059 37.0238C163.516 36.833 162.966 36.648 162.415 36.4773C162.319 36.4462 162.222 36.4154 162.126 36.3861L162.055 36.363C161.244 36.1152 160.405 35.883 159.564 35.6739C159.113 35.5627 158.671 35.4583 158.247 35.3658L158.205 35.3561C158.036 35.32 157.867 35.2821 157.698 35.2479C152.813 34.2326 147.888 33.9622 142.992 34.4382C141.367 34.5953 139.747 34.8347 138.134 35.1575C137.981 35.716 137.831 36.2806 137.685 36.8526C137.467 37.7077 137.252 38.5816 137.043 39.4725C143.151 37.9822 149.524 37.7807 155.725 38.8988C156.902 42.8881 158.573 47.0545 160.698 51.3083C156.316 52.7217 151.769 54.6959 147.145 57.1929L136.355 42.5702C136.189 43.3579 136.027 44.1561 135.87 44.9615C135.685 45.9144 135.506 46.8799 135.335 47.8574L143.675 59.1596C140.568 60.9992 137.487 63.0446 134.499 65.2494C133.999 65.6184 133.503 65.9911 133.011 66.3661C133.002 66.4797 132.994 66.5952 132.984 66.709C132.853 68.3578 132.741 70.0241 132.645 71.7038C134.01 70.5861 135.415 69.4953 136.851 68.436C139.846 66.2256 142.933 64.1856 146.038 62.3623L155.395 75.0432L137.695 88.1043L132.298 80.7906C132.295 80.9791 132.291 81.1665 132.287 81.355C132.275 82.0078 132.267 82.6592 132.262 83.3131C132.254 83.9685 132.251 84.6207 132.25 85.2719C132.249 85.9831 132.251 86.6941 132.257 87.4039L134.509 90.4557L132.334 92.0607C132.377 93.668 132.435 95.2658 132.509 96.8513L136.859 93.6411L145.92 105.921C145.1 106.357 144.283 106.778 143.469 107.178C140.937 108.428 138.442 109.505 136.001 110.403C135.21 110.693 134.424 110.965 133.644 111.219C134.058 114.852 134.561 118.366 135.15 121.728C135.644 124.555 136.205 127.294 136.813 129.867C136.898 130.227 136.985 130.586 137.073 130.939C137.295 130.99 137.52 131.039 137.743 131.085C144.046 132.396 150.419 132.464 156.706 131.292C157.078 131.224 157.451 131.15 157.822 131.072C159.139 130.796 160.437 130.466 161.715 130.084C162.863 129.745 163.996 129.362 165.11 128.938C168.954 127.477 172.601 125.529 176.012 123.109C176.27 122.926 176.527 122.74 176.783 122.552C181.606 118.993 185.654 114.688 188.852 109.725Z" fill="white"/>
</mask>
<g mask="url(#mask1_1_121)">
<mask id="mask2_1_121" style="mask-type:luminance" maskUnits="userSpaceOnUse" x="98" y="34" width="99" height="99">
<path d="M133.155 125.732C133.116 125.719 133.078 125.707 133.041 125.694C132.981 125.673 132.922 125.653 132.863 125.631L132.745 125.589C132.685 125.569 132.625 125.548 132.566 125.527C132.513 125.507 132.253 125.414 132.253 125.414C132.2 125.394 132.146 125.376 132.093 125.355C132.037 125.334 131.982 125.314 131.927 125.293L131.858 125.267C131.707 125.209 131.554 125.152 131.405 125.093L131.321 125.061C131.268 125.04 131.215 125.02 131.163 124.999C131.112 124.979 131.062 124.959 131.013 124.938L130.851 124.874C130.799 124.853 130.747 124.833 130.697 124.813C130.644 124.79 130.398 124.689 130.398 124.689C130.343 124.665 130.287 124.642 130.234 124.621C130.179 124.597 130.125 124.573 130.069 124.551C130.069 124.551 129.824 124.445 129.771 124.422C129.717 124.398 129.462 124.286 129.462 124.286C129.412 124.264 129.363 124.242 129.313 124.22C129.249 124.19 129.183 124.16 129.118 124.131L129.081 124.115C129.081 124.115 128.909 124.037 128.856 124.013C128.795 123.984 128.733 123.955 128.672 123.926L128.626 123.905C128.626 123.905 128.465 123.829 128.402 123.8C128.329 123.765 128.255 123.729 128.173 123.691L128.127 123.667C128.069 123.638 128.011 123.611 127.951 123.582C127.88 123.547 127.808 123.511 127.736 123.475L127.723 123.469C127.65 123.433 127.576 123.398 127.503 123.359C127.427 123.322 127.351 123.283 127.275 123.244C127.203 123.207 127.129 123.171 127.055 123.131C126.983 123.094 126.911 123.057 126.838 123.019C126.838 123.019 126.685 122.937 126.613 122.9C126.538 122.86 126.464 122.821 126.39 122.781C126.318 122.741 126.244 122.703 126.172 122.662C126.097 122.622 126.025 122.582 125.95 122.541C125.878 122.5 125.806 122.461 125.734 122.42C125.66 122.379 125.587 122.338 125.514 122.296C125.443 122.257 125.371 122.215 125.299 122.174C125.226 122.132 125.153 122.09 125.082 122.047C125.032 122.019 124.984 121.99 124.937 121.962C124.953 122.045 124.968 122.13 124.984 122.213C125.299 123.856 125.636 125.461 125.991 127.025C128.599 128.315 131.32 129.375 134.117 130.185C133.78 128.743 133.459 127.259 133.155 125.732ZM125.802 43.8842C127.375 43.0069 129 42.2242 130.673 41.54L133.139 44.8818C133.167 44.7365 133.195 44.5923 133.223 44.4481C133.785 41.5562 134.404 38.7953 135.073 36.1829C135.103 36.0688 135.132 35.9555 135.161 35.8433C134.931 35.9043 134.702 35.9683 134.472 36.0316C131.894 36.7547 129.394 37.6831 126.982 38.8162C126.95 38.9451 126.917 39.0734 126.885 39.2023C126.506 40.7237 126.143 42.2849 125.802 43.8842ZM106.384 100.925C106.353 100.855 106.323 100.785 106.293 100.713L106.254 100.623C106.232 100.569 106.209 100.517 106.187 100.463C106.159 100.398 106.133 100.333 106.106 100.268C106.106 100.268 106.018 100.05 105.998 100.001C105.971 99.934 105.945 99.8672 105.918 99.8018L105.866 99.6696C105.847 99.6243 105.83 99.5802 105.812 99.5331C105.782 99.4563 105.752 99.3782 105.722 99.3014C105.722 99.3014 105.647 99.1051 105.633 99.0672C105.578 98.923 105.525 98.7797 105.472 98.6358L105.396 98.4258C105.359 98.3269 105.325 98.229 105.291 98.1316C105.275 98.0905 105.196 97.8597 105.196 97.8597C105.172 97.7936 105.148 97.7253 105.127 97.6595C105.11 97.6126 105.031 97.3712 105.031 97.3712C105.009 97.3087 104.988 97.2472 104.968 97.1831C104.949 97.128 104.932 97.0722 104.914 97.0168L104.878 96.9075C104.857 96.8417 104.836 96.7745 104.814 96.7068C104.797 96.6523 104.779 96.5953 104.763 96.5399C104.763 96.5399 104.686 96.2951 104.667 96.2305C104.647 96.1664 104.584 95.9516 104.584 95.9516C104.563 95.8852 104.543 95.8174 104.524 95.7509C104.504 95.685 104.447 95.4809 104.447 95.4809C104.426 95.4114 104.407 95.3397 104.388 95.2704C104.365 95.1916 104.344 95.1135 104.321 95.0325C104.299 94.9504 104.277 94.8692 104.255 94.7883C104.237 94.7181 104.193 94.5495 104.193 94.5495C104.171 94.4683 104.149 94.3858 104.129 94.3036C104.109 94.2246 104.089 94.1451 104.069 94.066C104.048 93.983 104.026 93.8999 104.007 93.8186C103.988 93.7389 103.969 93.6577 103.95 93.5789C103.93 93.4963 103.911 93.4136 103.891 93.3304C103.874 93.252 103.856 93.171 103.838 93.0918C103.819 93.0091 103.799 92.9259 103.782 92.8438C103.764 92.7628 103.746 92.6821 103.729 92.6024L103.677 92.3542C103.66 92.2736 103.643 92.1932 103.627 92.1116C103.609 92.0291 103.593 91.9453 103.578 91.8632C103.562 91.7828 103.546 91.702 103.531 91.6207C103.515 91.5373 103.499 91.4551 103.483 91.3716C103.468 91.2903 103.454 91.2086 103.44 91.1286C103.423 91.0451 103.41 90.9614 103.395 90.8778C103.381 90.7969 103.367 90.7164 103.353 90.6364C103.338 90.5513 103.326 90.4681 103.312 90.3835C103.299 90.3024 103.285 90.222 103.273 90.1404C103.259 90.0584 103.248 89.9765 103.234 89.8878L103.228 89.8423C103.217 89.776 103.208 89.7109 103.199 89.6459C103.187 89.5723 103.176 89.4979 103.167 89.4242L103.162 89.3899C103.162 89.3899 103.138 89.2176 103.129 89.1495C103.12 89.0838 103.09 88.84 103.09 88.84C103.08 88.7767 103.073 88.715 103.065 88.6521C103.056 88.5766 103.047 88.5006 103.038 88.4255L103.034 88.3901C103.034 88.3901 103.014 88.2105 103.007 88.1533C102.999 88.084 102.992 88.0136 102.985 87.9439C102.985 87.9439 102.96 87.7059 102.955 87.6558C102.946 87.5803 102.94 87.5059 102.933 87.4306L102.928 87.376C102.928 87.376 102.91 87.2009 102.908 87.1557C102.9 87.0746 102.894 86.9947 102.887 86.9149C102.887 86.9149 102.869 86.6922 102.866 86.654C102.853 86.4891 102.842 86.3235 102.83 86.1579L102.817 85.9359C102.811 85.8416 102.805 85.7492 102.8 85.6547C102.797 85.6121 102.787 85.3981 102.787 85.3981C102.783 85.3158 102.779 85.2353 102.775 85.1526C102.773 85.1053 102.763 84.8646 102.763 84.8646C102.761 84.7926 102.758 84.7211 102.755 84.6491C102.754 84.5968 102.749 84.3629 102.749 84.3629C102.747 84.29 102.744 84.2184 102.743 84.1459C102.742 84.0877 102.737 83.8433 102.737 83.8433C102.737 83.7766 102.735 83.7089 102.735 83.6404C102.733 83.5795 102.734 83.5189 102.734 83.4567L102.733 83.3787C102.734 83.2978 102.732 83.217 102.733 83.1358C102.732 83.0712 102.734 82.8552 102.734 82.8552C102.736 82.7805 102.735 82.7051 102.737 82.6301C102.736 82.5588 102.738 82.4868 102.741 82.4148C102.741 82.4148 102.74 82.3647 102.741 82.3521C105.571 84.3912 108.423 86.8017 111.246 89.5446C111.084 89.8128 110.924 90.082 110.769 90.3468C108.526 94.201 107.077 97.7837 106.438 101.05L106.384 100.925ZM122.336 122.723C122.162 121.812 121.993 120.893 121.832 119.964C121.791 119.935 121.742 119.9 121.717 119.883C121.665 119.847 121.612 119.809 121.56 119.77C121.56 119.77 121.352 119.623 121.311 119.593C121.26 119.555 121.208 119.517 121.155 119.479L121.092 119.431C121.092 119.431 120.946 119.325 120.909 119.297C120.837 119.244 120.766 119.189 120.695 119.137L120.659 119.109C120.583 119.053 120.508 118.996 120.432 118.939C120.326 118.857 120.222 118.777 120.116 118.695C120.081 118.668 119.908 118.53 119.908 118.53C119.846 118.483 119.784 118.435 119.723 118.385C119.685 118.356 119.482 118.192 119.482 118.192C119.432 118.151 119.382 118.111 119.333 118.072C119.289 118.035 119.244 117.999 119.2 117.962L119.102 117.882C119.049 117.839 118.997 117.795 118.945 117.752C118.901 117.716 118.86 117.681 118.817 117.645L118.725 117.567C118.671 117.522 118.616 117.475 118.562 117.429C118.527 117.4 118.493 117.369 118.458 117.34C119.401 117.44 120.389 117.486 121.419 117.476C121.211 116.168 121.016 114.844 120.835 113.504C119.801 113.492 118.822 113.41 117.903 113.262C115.858 112.931 114.191 112.275 112.925 111.303L119.982 106.096C119.869 104.937 119.768 103.769 119.675 102.594C119.645 102.22 119.616 101.844 119.589 101.466L110.575 108.117C110.019 106.622 109.884 104.835 110.171 102.783C110.6 99.7236 111.928 96.2512 114.121 92.4621C115.927 94.3764 117.691 96.4028 119.393 98.5235C119.39 98.4605 119.385 98.3969 119.382 98.3335C119.261 96.258 119.17 94.1588 119.109 92.0501C118.186 91.0085 117.249 89.9957 116.301 89.0109C116.912 88.1196 117.559 87.2247 118.239 86.3326C118.491 86.0032 118.748 85.6725 119.009 85.3436C119.01 85.2935 119.009 85.2434 119.009 85.1932C119.01 84.5272 119.012 83.86 119.019 83.1899C119.026 82.52 119.035 81.8529 119.047 81.1876C119.059 80.4964 119.074 79.8034 119.094 79.1108C118.008 80.3214 116.978 81.537 116.007 82.756C115.104 83.8937 114.252 85.0321 113.452 86.1718C110.014 82.8869 106.527 80.063 103.062 77.7597C103.59 73.4021 104.757 69.1531 106.507 65.1526C107.61 62.6305 108.945 60.2061 110.496 57.9151L119.517 70.139C119.564 69.4422 119.613 68.7476 119.667 68.0559C119.769 66.7406 119.883 65.4233 120.008 64.1348L112.973 54.6011C115.329 51.7331 118.029 49.1674 121.009 46.9682C121.548 46.5704 122.095 46.1851 122.652 45.813C122.79 45.1117 122.931 44.4155 123.078 43.7261C123.312 42.6198 123.556 41.5226 123.81 40.4481C122.037 41.4442 120.319 42.556 118.658 43.7816C115.027 46.4611 111.834 49.5649 109.112 53.0529C107.562 55.0416 106.162 57.1552 104.925 59.3871C104.741 59.7187 104.56 60.0534 104.385 60.3882C101.411 66.0501 99.5968 72.1595 98.99 78.5679C97.8536 90.5671 101.173 102.523 108.336 112.23C109.668 114.035 111.135 115.762 112.698 117.364C113.086 117.761 113.486 118.158 113.888 118.543C114.154 118.798 114.429 119.054 114.702 119.304C115.276 119.829 115.876 120.352 116.485 120.857C118.488 122.518 120.623 124.014 122.86 125.332C122.68 124.472 122.504 123.601 122.336 122.723ZM125.448 78.1766L129.56 83.7502C129.561 83.597 129.563 83.4429 129.564 83.2897C129.571 82.6263 129.578 81.9668 129.591 81.3091C129.614 79.9503 129.649 78.6008 129.694 77.2614L128.338 75.4238C128.826 74.9783 129.321 74.5343 129.821 74.0948C129.905 72.2545 130.012 70.4336 130.136 68.6389C128.707 69.8078 127.316 71.0027 125.975 72.2211L122.424 67.4091C122.4 67.6929 122.378 67.978 122.356 68.2637C122.222 69.9975 122.109 71.7525 122.015 73.5253L123.072 74.9573C122.673 75.3495 122.28 75.7415 121.892 76.1361C121.824 77.8207 121.773 79.5208 121.743 81.2352C121.738 81.5241 121.733 81.8135 121.729 82.1033C122.309 81.451 122.907 80.7988 123.523 80.1481C124.146 79.4888 124.788 78.832 125.448 78.1766ZM130.546 107.477C129.272 105.401 127.91 103.339 126.467 101.31L129.905 98.7732C129.819 97.2031 129.748 95.6158 129.694 94.0091L124.116 98.125C123.398 97.1885 122.67 96.2678 121.93 95.3626C121.972 96.3072 122.021 97.2448 122.075 98.1769C122.157 99.592 122.253 100.994 122.364 102.381C122.412 102.998 122.463 103.613 122.518 104.224L123.279 103.662C125.346 106.572 127.239 109.544 128.93 112.531C127.02 112.969 125.221 113.259 123.543 113.403C123.725 114.732 123.919 116.042 124.127 117.331C125.959 117.159 127.905 116.835 129.963 116.358C130.261 116.288 130.565 116.215 130.87 116.139C131.201 116.786 131.519 117.431 131.827 118.074C131.32 114.686 130.89 111.146 130.546 107.477ZM129.564 83.2897C129.571 82.6263 129.578 81.9668 129.591 81.3091C129.614 79.9503 129.649 78.6008 129.694 77.2614L128.338 75.4238C128.826 74.9783 129.321 74.5343 129.821 74.0948C129.905 72.2545 130.012 70.4336 130.136 68.6389C128.707 69.8078 127.316 71.0027 125.975 72.2211L122.424 67.4091C122.4 67.6929 122.378 67.978 122.356 68.2637C122.222 69.9975 122.109 71.7525 122.015 73.5253L123.072 74.9573C122.673 75.3495 122.28 75.7415 121.892 76.1361C121.824 77.8207 121.773 79.5208 121.743 81.2352C121.738 81.5241 121.733 81.8135 121.729 82.1033C122.309 81.451 122.907 80.7988 123.523 80.1481C124.146 79.4888 124.788 78.832 125.448 78.1766L129.56 83.7502C129.561 83.597 129.563 83.4429 129.564 83.2897ZM164.769 124.794L151.767 107.174C154.873 105.334 157.954 103.289 160.942 101.084C163.93 98.879 166.793 96.5386 169.467 94.1125L182.469 111.732C180.112 114.6 177.412 117.166 174.432 119.365C171.452 121.564 168.204 123.388 164.769 124.794ZM152.78 127.86C148.44 128.351 144.036 128.213 139.717 127.434C138.539 123.445 136.869 119.28 134.743 115.025C136.068 114.597 137.408 114.118 138.761 113.591C141.186 112.642 143.651 111.532 146.144 110.268C146.86 109.905 147.577 109.528 148.296 109.14L160.872 126.183C158.225 126.989 155.515 127.55 152.78 127.86ZM140.046 91.29L157.746 78.2289L167.103 90.9097C164.446 93.3391 161.586 95.6868 158.59 97.8972C155.595 100.108 152.508 102.148 149.403 103.971L140.046 91.29ZM171.325 68.2085C173.804 71.4452 176.425 74.5027 179.14 77.3226C176.661 80.9447 173.591 84.5827 169.994 88.1569L160.933 75.8774L171.325 68.2085ZM184.866 58.2169C185.422 59.7118 185.558 61.4983 185.27 63.5503C184.842 66.61 183.513 70.0823 181.321 73.8714C178.965 71.375 176.682 68.6876 174.513 65.8564L184.866 58.2169ZM189.058 65.4089C189.089 65.4771 189.117 65.545 189.146 65.6142L189.162 65.654C189.162 65.654 189.232 65.8188 189.254 65.8697C189.281 65.9336 189.306 65.9969 189.332 66.0596L189.357 66.1203C189.357 66.1203 189.425 66.288 189.444 66.3342C189.472 66.4008 189.497 66.4672 189.524 66.5348L189.577 66.6652C189.594 66.7093 189.612 66.7546 189.629 66.8005C189.658 66.8715 189.685 66.9449 189.713 67.0166C189.713 67.0166 189.795 67.2297 189.81 67.2676C189.861 67.4057 189.912 67.5434 189.963 67.6821C189.983 67.7363 190.058 67.9405 190.058 67.9405C190.089 68.0281 190.12 68.1144 190.151 68.2019C190.166 68.243 190.248 68.4791 190.248 68.4791L190.315 68.6741C190.331 68.724 190.408 68.9538 190.408 68.9538C190.431 69.0193 190.453 69.0836 190.474 69.1485C190.491 69.1993 190.568 69.4441 190.568 69.4441C190.589 69.5041 190.608 69.5661 190.627 69.6255C190.644 69.6812 190.662 69.737 190.679 69.7927L190.716 69.912C190.735 69.9748 190.755 70.0385 190.774 70.1031C190.792 70.1616 190.857 70.3789 190.857 70.3789C190.877 70.4463 190.898 70.5134 190.917 70.5827C190.936 70.6473 190.955 70.7116 190.974 70.7773L190.996 70.8547L191.054 71.0632C191.075 71.1348 191.094 71.2063 191.114 71.2786L191.12 71.3025C191.143 71.3831 191.164 71.4643 191.186 71.5453C191.206 71.6191 191.225 71.6946 191.245 71.7688L191.249 71.786C191.271 71.8665 191.293 71.9478 191.312 72.0286C191.333 72.109 191.353 72.1893 191.373 72.2703C191.393 72.3528 191.415 72.4328 191.434 72.5141C191.453 72.5946 191.473 72.6759 191.492 72.756C191.511 72.8372 191.53 72.9191 191.549 73.0019C191.568 73.0816 191.586 73.1634 191.604 73.2445C191.624 73.3258 191.642 73.4076 191.66 73.4897C191.678 73.5708 191.695 73.6514 191.712 73.7334C191.729 73.814 191.747 73.8965 191.765 73.9771C191.782 74.06 191.798 74.1404 191.814 74.2219C191.832 74.3044 191.847 74.3874 191.864 74.4686C191.88 74.5508 191.895 74.6315 191.911 74.7137C191.927 74.7963 191.942 74.8785 191.958 74.9607C191.972 75.042 191.988 75.1249 192.002 75.205C192.017 75.2872 192.032 75.3704 192.046 75.4535C192.06 75.5358 192.075 75.6171 192.088 75.699C192.1 75.7724 192.113 75.8436 192.124 75.9158L192.13 75.9482C192.143 76.0292 192.155 76.1121 192.168 76.1931C192.183 76.2764 192.194 76.3598 192.207 76.4443L192.213 76.4832C192.223 76.5513 192.234 76.6204 192.243 76.6892C192.254 76.7598 192.264 76.8313 192.274 76.9022L192.286 76.9959C192.296 77.0591 192.304 77.1218 192.313 77.186C192.322 77.2511 192.329 77.3177 192.338 77.3837C192.338 77.3837 192.368 77.6222 192.378 77.6828C192.385 77.7494 192.392 77.816 192.4 77.8835L192.415 78.0055C192.421 78.0644 192.428 78.1213 192.434 78.1802C192.441 78.2419 192.448 78.3027 192.454 78.3633L192.469 78.5113C192.475 78.5672 192.481 78.6227 192.487 78.6808C192.494 78.7444 192.5 78.8089 192.505 78.8734L192.52 79.0233C192.525 79.0749 192.53 79.1269 192.534 79.1787C192.541 79.2509 192.546 79.3213 192.552 79.3934C192.552 79.3934 192.573 79.6368 192.576 79.6795C192.588 79.8445 192.601 80.0091 192.611 80.1748C192.614 80.2156 192.628 80.4471 192.628 80.4471C192.632 80.5242 192.638 80.5988 192.641 80.6766C192.645 80.7246 192.656 80.9741 192.656 80.9741C192.66 81.0429 192.664 81.1112 192.666 81.1797C192.669 81.2326 192.671 81.2849 192.672 81.3381L192.678 81.4843C192.681 81.5504 192.683 81.6162 192.685 81.6832C192.687 81.7404 192.689 81.7979 192.691 81.8539L192.693 81.9778C192.696 82.0476 192.697 82.117 192.699 82.1859C192.701 82.2449 192.704 82.4853 192.704 82.4853C192.704 82.5539 192.707 82.6228 192.707 82.6914C192.708 82.7578 192.708 82.8264 192.708 82.8927L192.708 82.9635C192.708 83.0407 192.709 83.1188 192.709 83.196C192.709 83.2646 192.708 83.3319 192.708 83.3989L192.708 83.4448C192.707 83.5303 192.707 83.6161 192.705 83.7016C192.705 83.7747 192.704 83.8476 192.702 83.92C192.702 83.92 192.701 83.9711 192.7 83.9815C189.87 81.9423 187.019 79.5319 184.196 76.789C184.358 76.5208 184.518 76.2515 184.673 75.9867C186.916 72.1325 188.365 68.5499 189.004 65.2832L189.058 65.4089ZM184.945 108.418L172.369 91.3762C176.119 87.6942 179.346 83.9315 181.989 80.1617C185.428 83.4475 188.916 86.2714 192.38 88.5732C191.517 95.6766 188.961 102.493 184.945 108.418ZM172.162 62.6711C170.097 59.763 168.202 56.7891 166.511 53.8023C170.779 52.8247 174.488 52.5793 177.538 53.072C179.584 53.4027 181.251 54.059 182.516 55.0309L172.162 62.6711ZM158.582 72.6921L149.521 60.4126C153.997 58.0292 158.379 56.1687 162.571 54.8683C164.465 58.2936 166.613 61.7001 168.975 65.0232L158.582 72.6921ZM160.207 39.9475C160.219 39.9502 160.232 39.954 160.245 39.9579C160.245 39.9579 160.405 40.0042 160.473 40.0242C160.559 40.0496 160.645 40.0754 160.731 40.1004C160.731 40.1004 160.899 40.1521 160.957 40.1696C161.029 40.1917 161.102 40.2154 161.174 40.237C161.174 40.237 161.384 40.3033 161.44 40.3214C161.507 40.3418 161.573 40.3638 161.64 40.3863C161.64 40.3863 161.866 40.4588 161.92 40.4779C161.986 40.4992 162.052 40.5227 162.119 40.5452L162.177 40.5645C162.177 40.5645 162.348 40.6211 162.398 40.6384L162.601 40.7094L162.659 40.7299C162.659 40.7299 162.825 40.7888 162.873 40.8054L163.079 40.8801C163.079 40.8801 163.305 40.9613 163.346 40.977C163.425 41.0061 163.502 41.0362 163.579 41.0652L163.817 41.1545C163.973 41.2135 164.127 41.2743 164.281 41.3348C164.316 41.3492 164.534 41.4378 164.534 41.4378C164.605 41.4659 164.676 41.4939 164.747 41.5223C164.792 41.5411 165.027 41.6388 165.027 41.6388C165.088 41.6641 165.15 41.6889 165.211 41.7142C165.26 41.7352 165.496 41.8375 165.496 41.8375C165.554 41.8616 165.613 41.8868 165.672 41.9122C165.724 41.9356 165.778 41.9583 165.829 41.981L165.955 42.037C166.015 42.063 166.072 42.0893 166.131 42.1144C166.191 42.1411 166.397 42.2354 166.397 42.2354C166.461 42.2635 166.524 42.2923 166.588 42.3223C166.645 42.3489 166.702 42.3753 166.76 42.4028L166.846 42.443C166.912 42.4736 166.976 42.5032 167.04 42.5351C167.103 42.5638 167.165 42.5935 167.226 42.6238L167.278 42.6489C167.35 42.6832 167.421 42.718 167.492 42.7528C167.559 42.7839 167.623 42.817 167.689 42.85L167.715 42.8613C167.789 42.8997 167.865 42.936 167.94 42.9748C168.015 43.0117 168.088 43.0498 168.163 43.0871C168.237 43.1243 168.312 43.1627 168.386 43.2022C168.459 43.2399 168.534 43.2791 168.607 43.3172C168.681 43.3563 168.755 43.3953 168.83 43.4347C168.904 43.4738 168.976 43.5126 169.05 43.5516C169.124 43.5928 169.198 43.6307 169.269 43.6713C169.344 43.7107 169.416 43.7507 169.49 43.7916C169.562 43.8322 169.636 43.8735 169.708 43.914C169.781 43.9541 169.854 43.996 169.926 44.0366C169.998 44.0765 170.071 44.1184 170.143 44.1609C170.215 44.2019 170.288 44.2438 170.36 44.2866C170.432 44.328 170.503 44.3696 170.575 44.4124C170.647 44.4549 170.72 44.4968 170.791 44.5392C170.863 44.5816 170.933 44.6254 171.005 44.6679C171.076 44.7107 171.148 44.7554 171.219 44.7988C171.286 44.8406 171.355 44.8819 171.423 44.9261L171.443 44.9365C171.51 44.9775 171.577 45.0204 171.644 45.0626C171.71 45.1029 171.776 45.145 171.841 45.1875L171.876 45.2083C171.94 45.2487 172.003 45.2892 172.066 45.3315C172.131 45.3718 172.196 45.4143 172.261 45.4573L172.312 45.4898C172.369 45.5267 172.428 45.5653 172.484 45.6024C172.54 45.6402 172.595 45.6761 172.65 45.7126L172.743 45.7749C172.796 45.8095 172.849 45.8446 172.901 45.8797C172.953 45.9165 173.008 45.9537 173.061 45.9896L173.11 46.0237C173.11 46.0237 173.265 46.1292 173.313 46.1624C173.365 46.1993 173.418 46.2352 173.469 46.2718L173.524 46.3099C173.524 46.3099 173.678 46.4172 173.724 46.4492C173.774 46.4854 173.824 46.5221 173.874 46.5574L173.937 46.6015C173.937 46.6015 174.087 46.7105 174.13 46.741C174.184 46.78 174.238 46.8187 174.291 46.8595L174.35 46.9031C174.35 46.9031 174.495 47.0081 174.533 47.0368C174.6 47.0864 174.665 47.137 174.732 47.1866L174.783 47.2241C174.857 47.2797 174.932 47.3373 175.006 47.3936C175.114 47.4743 175.219 47.5557 175.325 47.6384C175.36 47.6659 175.549 47.8149 175.549 47.8149C175.606 47.8582 175.663 47.9033 175.718 47.9485C175.756 47.9773 175.952 48.136 175.952 48.136C176.005 48.179 176.058 48.2204 176.109 48.2629C176.151 48.2963 176.335 48.4483 176.335 48.4483C176.389 48.4923 176.443 48.5362 176.496 48.5807C176.541 48.618 176.722 48.7699 176.722 48.7699C176.774 48.8148 176.827 48.8599 176.879 48.9048C176.915 48.9338 176.949 48.9642 176.984 48.9936C173.674 48.6409 169.823 48.9687 165.479 49.9757C165.18 50.0456 164.876 50.1191 164.571 50.1949C162.783 46.6883 161.321 43.2527 160.207 39.9475ZM188.852 109.725C189.436 108.821 189.991 107.894 190.517 106.946C191.401 105.352 192.192 103.721 192.887 102.055C194.786 97.5172 195.98 92.7315 196.451 87.7657C197.588 75.7664 194.269 63.8109 187.106 54.1039C186.107 52.7498 185.026 51.434 183.895 50.1914C183.121 49.3425 182.303 48.5066 181.465 47.7071C181.26 47.5126 181.049 47.3137 180.836 47.1196C179.479 45.8708 178.059 44.7048 176.579 43.6267C175.507 42.8418 174.404 42.1028 173.271 41.41C171.249 40.1714 169.132 39.0804 166.935 38.1433C166.771 38.0746 166.606 38.0053 166.441 37.9381C166.132 37.809 165.817 37.6829 165.501 37.561C165.121 37.4118 164.741 37.2689 164.36 37.1312C164.259 37.0958 164.16 37.0608 164.059 37.0242C163.516 36.8334 162.966 36.6483 162.416 36.4776C162.319 36.4465 162.223 36.4158 162.126 36.3865L162.055 36.3634C161.244 36.1156 160.405 35.8833 159.564 35.6743C159.113 35.563 158.671 35.4587 158.247 35.3661L158.205 35.3564C158.036 35.3204 157.867 35.2825 157.698 35.2483C152.813 34.2329 147.888 33.9625 142.992 34.4385C141.367 34.5957 139.748 34.8351 138.134 35.1578C137.981 35.7163 137.832 36.281 137.685 36.8529C137.467 37.7081 137.252 38.5819 137.044 39.4729C143.151 37.9826 149.524 37.781 155.725 38.8992C156.903 42.8884 158.573 47.0549 160.698 51.3087C156.316 52.7221 151.769 54.6963 147.145 57.1933L136.355 42.5706C136.189 43.3583 136.027 44.1565 135.87 44.9619C135.685 45.9148 135.506 46.8802 135.335 47.8578L143.675 59.16C140.568 60.9995 137.487 63.045 134.5 65.2497C133.999 65.6188 133.503 65.9914 133.011 66.3665C133.002 66.4801 132.994 66.5956 132.984 66.7094C132.853 68.3582 132.741 70.0245 132.645 71.7042C134.01 70.5865 135.416 69.4956 136.851 68.4364C139.846 66.226 142.933 64.186 146.038 62.3627L155.395 75.0435L137.695 88.1046L132.299 80.7909C132.295 80.9795 132.291 81.1669 132.288 81.3554C132.275 82.0081 132.267 82.6596 132.262 83.3134C132.254 83.9688 132.251 84.6211 132.251 85.2722C132.249 85.9835 132.251 86.6945 132.257 87.4042L134.509 90.4561L132.334 92.0611C132.377 93.6683 132.435 95.2661 132.509 96.8517L136.859 93.6415L145.921 105.921C145.1 106.358 144.283 106.778 143.469 107.179C140.938 108.428 138.442 109.505 136.002 110.403C135.211 110.694 134.424 110.966 133.645 111.22C134.058 114.852 134.562 118.367 135.15 121.728C135.644 124.555 136.205 127.294 136.814 129.868C136.898 130.228 136.985 130.586 137.073 130.94C137.295 130.991 137.52 131.039 137.743 131.085C144.047 132.397 150.419 132.465 156.706 131.293C157.078 131.224 157.451 131.15 157.822 131.072C159.139 130.797 160.437 130.467 161.715 130.085C162.863 129.746 163.996 129.362 165.111 128.938C168.955 127.478 172.601 125.529 176.012 123.109C176.271 122.927 176.528 122.741 176.784 122.552C181.606 118.993 185.654 114.689 188.852 109.725Z" fill="white"/>
</mask>
<g mask="url(#mask2_1_121)">
<path d="M158.043 14.7187L79.2727 72.8445L137.398 151.615L216.169 93.4891L158.043 14.7187Z" fill="url(#paint0_linear_1_121)"/>
</g>
</g>
</g>
<mask id="mask3_1_121" style="mask-type:luminance" maskUnits="userSpaceOnUse" x="68" y="0" width="161" height="166">
<path d="M151.865 0.946381L228.315 104.565L145.203 165.885L68.7532 62.2667L151.865 0.946381Z" fill="white"/>
</mask>
<g mask="url(#mask3_1_121)">
<mask id="mask4_1_121" style="mask-type:luminance" maskUnits="userSpaceOnUse" x="121" y="5" width="52" height="157">
<path d="M151.105 158.022C146.041 157.973 141.418 152.378 137.748 142.976C141.678 150.815 146.465 155.419 151.666 155.468C155.109 155.502 158.408 153.535 161.428 149.951C158.305 155.142 154.795 158.056 151.105 158.022ZM152.517 8.86833C156.207 8.90226 159.661 11.8811 162.686 17.1319C159.734 13.4921 156.472 11.4628 153.03 11.4305C147.829 11.3815 142.954 15.8935 138.877 23.6573C142.725 14.3267 147.452 8.81982 152.517 8.86833ZM163.484 147.196C166.525 142.645 169.22 136.392 171.409 128.883C169.593 129.837 167.724 130.679 165.817 131.404C165.096 131.678 164.367 131.936 163.636 132.176C159.742 144.761 154.436 152.527 148.65 152.472C143.663 152.424 139.139 146.563 135.645 136.831C135.289 135.647 134.946 134.42 134.615 133.154C134.382 132.266 134.156 131.359 133.937 130.432C133.913 130.332 133.889 130.23 133.865 130.129C133.528 128.686 133.208 127.202 132.904 125.675C132.702 124.668 132.508 123.642 132.324 122.598C132.296 122.444 132.269 122.29 132.242 122.135C132.11 121.378 131.982 120.613 131.859 119.837C131.817 119.581 131.775 119.322 131.736 119.062C131.703 118.848 131.67 118.633 131.637 118.418C131.617 118.285 131.597 118.151 131.577 118.017C131.069 114.629 130.639 111.089 130.296 107.42C130.192 106.328 130.097 105.224 130.01 104.11C129.906 102.766 129.812 101.406 129.731 100.033C129.704 99.5953 129.68 99.1577 129.656 98.716C129.57 97.1459 129.499 95.5587 129.445 93.952C129.409 92.8647 129.378 91.7693 129.357 90.6659C129.339 89.8628 129.326 89.0557 129.319 88.2439C129.308 87.2381 129.303 86.2283 129.305 85.2113C129.306 84.7064 129.308 84.2001 129.312 83.693C129.313 83.5398 129.315 83.3857 129.316 83.2326C129.323 82.5691 129.33 81.9097 129.343 81.252C129.366 79.8931 129.401 78.5436 129.446 77.2043C129.482 76.1414 129.524 75.086 129.573 74.0377C129.658 72.1974 129.764 70.3765 129.889 68.5817C129.94 67.8639 129.992 67.1517 130.048 66.4419C130.09 65.9129 130.133 65.3872 130.179 64.862C130.25 64.0259 130.326 63.1955 130.406 62.3707C130.879 57.5146 131.494 52.8647 132.236 48.4764C132.445 47.2383 132.665 46.0205 132.893 44.8249C132.922 44.6796 132.949 44.5354 132.977 44.3912C133.54 41.4994 134.159 38.7385 134.829 36.1262C134.858 36.012 134.887 35.8988 134.917 35.7865C135.182 34.7614 135.456 33.7582 135.738 32.7808C136.036 31.7467 136.343 30.7392 136.657 29.7604C140.335 20.0976 144.969 14.3229 149.957 14.3695C155.645 14.4224 160.726 22.0257 164.367 34.3066C164.479 34.345 164.593 34.3845 164.708 34.4249L164.732 34.4344C164.827 34.4681 164.921 34.5013 165.014 34.5346L165.03 34.54C165.426 34.6827 165.831 34.8353 166.233 34.9928C166.552 35.1155 166.886 35.2502 167.221 35.3893C167.396 35.4601 167.569 35.5333 167.74 35.6047C169.219 36.2365 170.668 36.9365 172.074 37.6971C170.06 30.4496 167.551 24.3919 164.687 19.9247C160.369 10.9718 155.052 5.68576 149.259 5.63174C140.586 5.54952 132.753 17.2113 127.628 35.4161C127.322 36.5058 127.024 37.6214 126.737 38.7588C126.705 38.8877 126.672 39.0161 126.64 39.145C126.261 40.6663 125.898 42.2274 125.556 43.8267C125.527 43.959 125.498 44.0929 125.47 44.2276C125.256 45.2405 125.05 46.2671 124.851 47.3083L124.85 47.3092C123.89 52.3441 123.113 57.6996 122.545 63.3078C122.522 63.5397 122.499 63.7725 122.476 64.0056C122.367 65.1112 122.268 66.2273 122.177 67.3514C122.153 67.6353 122.131 67.9204 122.109 68.206C121.975 69.9399 121.861 71.6948 121.768 73.4676C121.721 74.3333 121.681 75.2043 121.645 76.0784C121.576 77.763 121.525 79.463 121.495 81.1775C121.49 81.4664 121.485 81.7558 121.481 82.0455C121.475 82.4156 121.47 82.7862 121.467 83.1568C121.461 83.8196 121.459 84.4787 121.458 85.1381C121.457 85.5015 121.457 85.8638 121.459 86.2261C121.465 87.7803 121.487 89.3234 121.526 90.8538C121.563 92.3507 121.615 93.8342 121.681 95.3049C121.723 96.2495 121.771 97.1871 121.826 98.1192C121.908 99.5343 122.004 100.936 122.114 102.323C122.163 102.941 122.213 103.555 122.268 104.167C122.374 105.378 122.489 106.577 122.616 107.764C122.719 108.742 122.83 109.709 122.947 110.668C123.056 111.569 123.171 112.462 123.293 113.346C123.475 114.674 123.669 115.984 123.877 117.273C124.128 118.848 124.398 120.392 124.686 121.904C124.702 121.988 124.717 122.072 124.734 122.156C125.048 123.798 125.384 125.404 125.74 126.967C125.762 127.065 125.784 127.163 125.807 127.26C126.046 128.299 126.294 129.321 126.549 130.323C131.316 149.009 139.005 161.112 147.788 161.195C153.58 161.251 158.997 156.066 163.484 147.196Z" fill="white"/>
</mask>
<g mask="url(#mask4_1_121)">
<mask id="mask5_1_121" style="mask-type:luminance" maskUnits="userSpaceOnUse" x="121" y="5" width="52" height="157">
<path d="M151.105 158.021C146.041 157.972 141.418 152.377 137.748 142.975C141.678 150.814 146.466 155.418 151.666 155.467C155.109 155.501 158.408 153.534 161.428 149.95C158.306 155.141 154.795 158.055 151.105 158.021ZM152.517 8.86749C156.207 8.90142 159.661 11.8803 162.686 17.131C159.734 13.4913 156.472 11.462 153.03 11.4297C147.829 11.3807 142.954 15.8926 138.877 23.6564C142.725 14.3258 147.452 8.81898 152.517 8.86749ZM163.484 147.195C166.525 142.644 169.22 136.392 171.409 128.882C169.593 129.836 167.724 130.678 165.818 131.403C165.096 131.677 164.367 131.935 163.636 132.175C159.742 144.76 154.436 152.526 148.65 152.471C143.663 152.424 139.139 146.562 135.645 136.831C135.289 135.646 134.946 134.42 134.615 133.154C134.382 132.265 134.156 131.358 133.937 130.432C133.913 130.331 133.89 130.229 133.865 130.128C133.528 128.686 133.208 127.201 132.904 125.675C132.702 124.667 132.508 123.641 132.324 122.597C132.296 122.443 132.269 122.289 132.242 122.134C132.11 121.378 131.982 120.612 131.859 119.837C131.817 119.58 131.775 119.321 131.736 119.061C131.703 118.848 131.67 118.632 131.637 118.417C131.617 118.284 131.597 118.15 131.577 118.016C131.069 114.628 130.64 111.088 130.296 107.419C130.193 106.327 130.097 105.223 130.01 104.109C129.906 102.765 129.812 101.405 129.731 100.032C129.704 99.5945 129.68 99.1569 129.656 98.7152C129.57 97.1451 129.499 95.5578 129.445 93.9511C129.409 92.8639 129.378 91.7685 129.357 90.665C129.339 89.862 129.327 89.0548 129.319 88.2431C129.308 87.2373 129.303 86.2275 129.305 85.2104C129.306 84.7055 129.308 84.1992 129.312 83.6921C129.313 83.539 129.315 83.3849 129.316 83.2317C129.323 82.5683 129.331 81.9088 129.343 81.2511C129.366 79.8923 129.401 78.5428 129.447 77.2035C129.482 76.1406 129.524 75.0852 129.573 74.0368C129.658 72.1965 129.764 70.3756 129.889 68.5809C129.94 67.8631 129.992 67.1508 130.048 66.441C130.09 65.9121 130.133 65.3863 130.18 64.8612C130.25 64.0251 130.326 63.1947 130.406 62.3698C130.879 57.5138 131.494 52.8639 132.236 48.4756C132.445 47.2374 132.665 46.0197 132.893 44.824C132.922 44.6788 132.95 44.5346 132.977 44.3903C133.54 41.4985 134.159 38.7377 134.829 36.1253C134.859 36.0112 134.887 35.8979 134.917 35.7857C135.182 34.7605 135.456 33.7574 135.738 32.78C136.036 31.7458 136.343 30.7383 136.657 29.7596C140.335 20.0968 144.969 14.3221 149.957 14.3687C155.645 14.4216 160.726 22.0249 164.367 34.3058C164.479 34.3442 164.593 34.3836 164.709 34.424L164.732 34.4336C164.827 34.4672 164.921 34.5005 165.014 34.5338L165.03 34.5392C165.426 34.6819 165.831 34.8344 166.233 34.9919C166.552 35.1146 166.886 35.2493 167.221 35.3885C167.396 35.4593 167.569 35.5325 167.74 35.6039C169.219 36.2357 170.668 36.9357 172.074 37.6963C170.06 30.4488 167.551 24.391 164.687 19.9238C160.369 10.9709 155.052 5.68492 149.259 5.6309C140.586 5.54868 132.753 17.2104 127.629 35.4152C127.322 36.5049 127.024 37.6205 126.737 38.758C126.705 38.8869 126.672 39.0153 126.64 39.1442C126.261 40.6655 125.898 42.2266 125.557 43.8259C125.527 43.9582 125.498 44.0921 125.47 44.2268C125.256 45.2397 125.05 46.2662 124.851 47.3075L124.85 47.3084C123.89 52.3433 123.113 57.6988 122.545 63.307C122.522 63.5389 122.499 63.7716 122.477 64.0048C122.367 65.1104 122.268 66.2264 122.177 67.3506C122.153 67.6344 122.131 67.9195 122.109 68.2051C121.975 69.939 121.861 71.694 121.768 73.4667C121.721 74.3324 121.681 75.2035 121.645 76.0776C121.576 77.7621 121.525 79.4622 121.495 81.1767C121.49 81.4656 121.485 81.7549 121.481 82.0447C121.475 82.4147 121.47 82.7854 121.467 83.156C121.461 83.8188 121.459 84.4779 121.458 85.1372C121.457 85.5007 121.457 85.8629 121.459 86.2252C121.465 87.7794 121.488 89.3226 121.526 90.853C121.563 92.3498 121.615 93.8334 121.682 95.3041C121.723 96.2486 121.772 97.1862 121.826 98.1183C121.908 99.5335 122.004 100.935 122.114 102.322C122.163 102.94 122.213 103.554 122.268 104.166C122.374 105.377 122.489 106.576 122.616 107.763C122.719 108.741 122.83 109.708 122.947 110.667C123.056 111.569 123.171 112.461 123.293 113.345C123.475 114.673 123.669 115.983 123.877 117.272C124.128 118.847 124.398 120.392 124.686 121.903C124.702 121.987 124.717 122.071 124.734 122.155C125.048 123.798 125.384 125.403 125.74 126.967C125.762 127.064 125.784 127.162 125.807 127.259C126.046 128.298 126.294 129.32 126.549 130.323C131.316 149.008 139.005 161.112 147.788 161.194C153.58 161.25 158.998 156.065 163.484 147.195Z" fill="white"/>
</mask>
<g mask="url(#mask5_1_121)">
<path d="M230.776 -1.23512L65.8484 -2.79576L64.2377 167.407L229.166 168.968L230.776 -1.23512Z" fill="url(#paint1_linear_1_121)"/>
</g>
</g>
</g>
<mask id="mask6_1_121" style="mask-type:luminance" maskUnits="userSpaceOnUse" x="66" y="3" width="166" height="161">
<path d="M66.248 82.7744L167.372 3.05371L231.316 84.1648L130.192 163.886L66.248 82.7744Z" fill="white"/>
</mask>
<g mask="url(#mask6_1_121)">
<mask id="mask7_1_121" style="mask-type:luminance" maskUnits="userSpaceOnUse" x="71" y="59" width="156" height="52">
<path d="M223.267 78.5172C223.381 83.5808 217.936 88.3794 208.656 92.3482C216.365 88.1702 220.814 83.2377 220.697 78.0383C220.621 74.5961 218.55 71.3612 214.871 68.4573C220.159 71.4126 223.183 74.8281 223.267 78.5172ZM74.1451 81.8702C74.0612 78.1812 76.9282 74.6332 82.0797 71.4427C78.5361 74.5093 76.612 77.8343 76.6897 81.2754C76.8067 86.4749 81.4721 91.2035 89.3622 95.0311C79.9134 91.4826 74.2584 86.9339 74.1451 81.8702ZM212.052 66.4908C207.406 63.5962 201.071 61.1028 193.495 59.155C194.507 60.9395 195.408 62.78 196.194 64.6626C196.491 65.3747 196.772 66.0954 197.035 66.8185C209.738 70.3085 217.669 75.364 217.799 81.1486C217.911 86.1344 212.197 90.8433 202.582 94.6461C201.409 95.0402 200.194 95.4223 198.94 95.7932C198.059 96.0546 197.159 96.3093 196.241 96.558C196.141 96.5851 196.04 96.6118 195.939 96.6393C194.509 97.022 193.035 97.39 191.519 97.7423C190.518 97.9764 189.499 98.2034 188.461 98.4204C188.309 98.4534 188.155 98.4847 188.001 98.5167C187.25 98.6734 186.489 98.8253 185.717 98.9732C185.462 99.0237 185.204 99.0738 184.946 99.1209C184.734 99.161 184.52 99.2009 184.306 99.2409C184.174 99.2646 184.04 99.2893 183.907 99.3136C180.537 99.9289 177.012 100.471 173.356 100.932C172.268 101.07 171.167 101.201 170.057 101.323C168.717 101.471 167.361 101.608 165.991 101.733C165.554 101.773 165.118 101.812 164.677 101.85C163.111 101.986 161.526 102.107 159.922 102.213C158.837 102.284 157.743 102.349 156.641 102.406C155.839 102.449 155.032 102.488 154.221 102.521C153.216 102.564 152.207 102.601 151.19 102.632C150.686 102.647 150.18 102.661 149.673 102.673C149.52 102.677 149.366 102.68 149.212 102.684C148.549 102.698 147.89 102.712 147.232 102.721C145.873 102.741 144.523 102.749 143.183 102.746C142.12 102.745 141.063 102.736 140.014 102.721C138.172 102.695 136.349 102.646 134.551 102.579C133.832 102.552 133.118 102.522 132.407 102.488C131.877 102.463 131.35 102.437 130.824 102.408C129.986 102.364 129.153 102.315 128.326 102.261C123.458 101.944 118.791 101.477 114.381 100.875C113.137 100.706 111.912 100.525 110.71 100.335C110.564 100.312 110.419 100.288 110.274 100.265C107.366 99.7953 104.586 99.2647 101.954 98.6786C101.839 98.6526 101.725 98.6278 101.612 98.6017C100.579 98.3692 99.5672 98.1276 98.5813 97.8766C97.5382 97.6118 96.5214 97.3369 95.5332 97.0549C85.7578 93.6868 79.838 89.2395 79.7253 84.2532C79.5965 78.5667 87.0337 73.2449 99.192 69.2139C99.2268 69.1007 99.2626 68.9853 99.2993 68.8685L99.3081 68.8448C99.3386 68.7482 99.3689 68.6539 99.3992 68.5596L99.4041 68.5437C99.534 68.1428 99.6736 67.7337 99.8182 67.3266C99.9306 67.0039 100.055 66.666 100.183 66.326C100.248 66.1492 100.316 65.9739 100.382 65.8005C100.966 64.3024 101.619 62.8315 102.335 61.4018C95.1551 63.6465 89.1806 66.3478 84.8071 69.3529C75.9967 73.9544 70.8832 79.4384 71.0143 85.2298C71.2091 93.9012 83.1151 101.357 101.474 105.898C102.573 106.17 103.698 106.431 104.844 106.682C104.974 106.71 105.103 106.739 105.233 106.767C106.766 107.097 108.337 107.41 109.947 107.7C110.08 107.725 110.215 107.75 110.35 107.774C111.369 107.956 112.402 108.129 113.449 108.294L113.45 108.295C118.513 109.094 123.891 109.7 129.514 110.088C129.747 110.104 129.98 110.119 130.214 110.134C131.322 110.208 132.441 110.272 133.567 110.327C133.852 110.341 134.138 110.355 134.424 110.367C136.161 110.446 137.919 110.503 139.694 110.54C140.56 110.559 141.432 110.572 142.307 110.58C143.993 110.595 145.694 110.591 147.408 110.567C147.697 110.563 147.987 110.558 148.276 110.553C148.646 110.547 149.017 110.54 149.387 110.531C150.05 110.516 150.709 110.497 151.368 110.478C151.731 110.466 152.093 110.455 152.455 110.441C154.009 110.386 155.55 110.314 157.079 110.227C158.574 110.142 160.055 110.043 161.522 109.929C162.465 109.857 163.401 109.779 164.331 109.695C165.742 109.567 167.141 109.427 168.523 109.273C169.139 109.204 169.752 109.134 170.361 109.06C171.568 108.915 172.763 108.762 173.945 108.597C174.919 108.463 175.883 108.321 176.837 108.173C177.735 108.036 178.623 107.892 179.503 107.743C180.824 107.518 182.128 107.282 183.41 107.033C184.975 106.732 186.51 106.413 188.012 106.077C188.095 106.058 188.179 106.04 188.262 106.021C189.894 105.655 191.488 105.267 193.039 104.861C193.136 104.836 193.233 104.811 193.329 104.785C194.36 104.513 195.374 104.233 196.368 103.945C214.891 98.5846 226.743 90.5123 226.545 81.7317C226.416 75.9405 221.061 70.6915 212.052 66.4908Z" fill="white"/>
</mask>
<g mask="url(#mask7_1_121)">
<mask id="mask8_1_121" style="mask-type:luminance" maskUnits="userSpaceOnUse" x="71" y="59" width="156" height="52">
<path d="M223.267 78.5171C223.38 83.5808 217.935 88.3793 208.656 92.3481C216.365 88.1702 220.814 83.2377 220.696 78.0382C220.62 74.596 218.549 71.3611 214.87 68.4573C220.159 71.4125 223.183 74.8281 223.267 78.5171ZM74.1443 81.8702C74.0604 78.1811 76.9274 74.6332 82.0788 71.4426C78.5352 74.5092 76.6112 77.8342 76.6888 81.2753C76.8059 86.4748 81.4713 91.2034 89.3613 95.031C79.9126 91.4825 74.2576 86.9338 74.1443 81.8702ZM212.051 66.4907C207.405 63.5961 201.07 61.1027 193.494 59.1549C194.506 60.9394 195.407 62.7799 196.193 64.6625C196.49 65.3747 196.771 66.0954 197.034 66.8184C209.737 70.3084 217.668 75.3639 217.798 81.1485C217.91 86.1343 212.196 90.8433 202.581 94.646C201.408 95.0401 200.194 95.4222 198.939 95.7931C198.058 96.0545 197.158 96.3092 196.24 96.5579C196.14 96.5851 196.039 96.6117 195.938 96.6392C194.508 97.022 193.035 97.3899 191.518 97.7422C190.518 97.9764 189.498 98.2034 188.46 98.4203C188.308 98.4533 188.154 98.4846 188.001 98.5167C187.249 98.6733 186.488 98.8252 185.717 98.9732C185.461 99.0236 185.204 99.0737 184.946 99.1208C184.733 99.1609 184.519 99.2009 184.305 99.2408C184.173 99.2645 184.039 99.2892 183.906 99.3135C180.536 99.9289 177.012 100.471 173.355 100.932C172.267 101.07 171.167 101.201 170.056 101.323C168.716 101.471 167.36 101.607 165.99 101.733C165.554 101.773 165.117 101.812 164.676 101.85C163.11 101.986 161.526 102.107 159.921 102.213C158.836 102.284 157.742 102.349 156.64 102.406C155.838 102.449 155.031 102.487 154.22 102.521C153.215 102.564 152.206 102.601 151.19 102.632C150.685 102.647 150.179 102.661 149.672 102.673C149.519 102.677 149.365 102.68 149.212 102.684C148.548 102.698 147.889 102.712 147.231 102.721C145.872 102.741 144.522 102.749 143.182 102.746C142.119 102.745 141.063 102.736 140.013 102.721C138.171 102.695 136.348 102.646 134.55 102.579C133.831 102.551 133.117 102.522 132.406 102.488C131.876 102.463 131.349 102.437 130.823 102.408C129.985 102.364 129.153 102.315 128.326 102.261C123.457 101.944 118.79 101.477 114.38 100.875C113.136 100.706 111.912 100.525 110.709 100.335C110.563 100.311 110.418 100.288 110.273 100.265C107.365 99.7953 104.586 99.2646 101.953 98.6785C101.838 98.6525 101.724 98.6277 101.611 98.6016C100.578 98.3691 99.5664 98.1275 98.5805 97.8765C97.5374 97.6117 96.5205 97.3368 95.5323 97.0549C85.7569 93.6867 79.8371 89.2395 79.7245 84.2531C79.5957 78.5666 87.0328 73.2448 99.1911 69.2139C99.2259 69.1006 99.2617 68.9852 99.2984 68.8684L99.3072 68.8447C99.3378 68.7482 99.3681 68.6539 99.3983 68.5596L99.4032 68.5436C99.5332 68.1427 99.6727 67.7336 99.8173 67.3265C99.9298 67.0038 100.054 66.6659 100.182 66.326C100.247 66.1492 100.315 65.9738 100.381 65.8004C100.965 64.3023 101.618 62.8315 102.334 61.4017C95.1542 63.6464 89.1797 66.3477 84.8063 69.3528C75.9959 73.9544 70.8824 79.4383 71.0134 85.2297C71.2082 93.9011 83.1142 101.357 101.473 105.898C102.572 106.17 103.697 106.431 104.843 106.682C104.973 106.71 105.102 106.739 105.232 106.766C106.765 107.097 108.337 107.41 109.946 107.7C110.079 107.725 110.214 107.75 110.349 107.774C111.369 107.956 112.401 108.129 113.448 108.294L113.449 108.295C118.512 109.094 123.89 109.7 129.513 110.088C129.746 110.104 129.979 110.119 130.213 110.134C131.321 110.208 132.44 110.272 133.567 110.327C133.851 110.341 134.137 110.355 134.423 110.367C136.16 110.446 137.918 110.503 139.693 110.54C140.559 110.559 141.431 110.572 142.306 110.58C143.992 110.595 145.693 110.591 147.407 110.567C147.696 110.562 147.986 110.558 148.275 110.553C148.645 110.547 149.016 110.54 149.387 110.531C150.049 110.516 150.708 110.497 151.367 110.477C151.73 110.466 152.092 110.455 152.455 110.441C154.008 110.386 155.549 110.314 157.078 110.227C158.573 110.142 160.054 110.043 161.522 109.929C162.464 109.857 163.4 109.779 164.33 109.695C165.742 109.567 167.14 109.427 168.523 109.272C169.138 109.204 169.751 109.134 170.36 109.06C171.567 108.915 172.762 108.762 173.944 108.597C174.918 108.462 175.882 108.321 176.836 108.173C177.734 108.036 178.622 107.892 179.502 107.743C180.824 107.518 182.127 107.282 183.409 107.033C184.974 106.732 186.509 106.412 188.011 106.077C188.094 106.058 188.178 106.04 188.261 106.021C189.893 105.654 191.487 105.267 193.038 104.861C193.135 104.836 193.232 104.811 193.329 104.785C194.359 104.513 195.373 104.233 196.367 103.945C214.891 98.5845 226.742 90.5122 226.544 81.7316C226.415 75.9405 221.06 70.6914 212.051 66.4907Z" fill="white"/>
</mask>
<g mask="url(#mask8_1_121)">
<path d="M61.5473 3.9732L65.2551 168.867L235.422 165.041L231.715 0.146636L61.5473 3.9732Z" fill="url(#paint2_linear_1_121)"/>
</g>
</g>
</g>
<mask id="mask9_1_121" style="mask-type:luminance" maskUnits="userSpaceOnUse" x="20" y="119" width="257" height="41">
<path d="M20.7744 119H276.148V159.617H20.7744V119Z" fill="white"/>
</mask>
<g mask="url(#mask9_1_121)">
<mask id="mask10_1_121" style="mask-type:luminance" maskUnits="userSpaceOnUse" x="20" y="119" width="257" height="41">
<path fill-rule="evenodd" clip-rule="evenodd" d="M20.829 142.593C62.3875 129.308 104.843 137.479 131.85 159.469C113.322 135.322 73.0504 124.664 26.899 132.907C22.8525 139.363 20.829 142.593 20.829 142.593ZM276.015 142.593C234.456 129.308 192.001 137.479 164.993 159.469C183.521 135.322 223.793 124.664 269.945 132.907C273.991 139.363 276.015 142.593 276.015 142.593ZM258.869 127.36C224.543 120.116 190.001 129.156 169.344 149.18C186.769 126.734 216.036 116.115 252.411 119.741C256.715 124.821 258.869 127.36 258.869 127.36ZM37.9744 127.36C72.2997 120.116 106.842 129.156 127.5 149.18C110.075 126.734 80.807 116.115 44.4322 119.741C40.127 124.821 37.9744 127.36 37.9744 127.36Z" fill="white"/>
</mask>
<g mask="url(#mask10_1_121)">
<path d="M20.829 159.468V116.114H276.015V159.468H20.829Z" fill="url(#paint3_linear_1_121)"/>
</g>
</g>
<path fill-rule="evenodd" clip-rule="evenodd" d="M160.673 168.5C196.427 142.131 249.354 140.841 285.763 154.817C293.813 169.584 295.057 171.951 297 175.912C260.322 144.875 188.613 155.431 163.236 172.845C161.857 182.927 156.778 185.189 148.5 184.988C140.221 185.189 135.142 182.927 133.764 172.845C108.386 155.431 36.6779 144.875 0 175.912C1.94226 171.951 3.18675 169.584 11.2366 154.817C47.6455 140.841 100.573 142.13 136.327 168.5C137.482 172.317 140.363 174.932 143.881 176.345C146.148 177.255 150.852 177.255 153.118 176.345C156.637 174.932 159.518 172.317 160.673 168.5Z" fill="#7642A0"/>
<path d="M66.6035 208.078C66.6035 209.445 66.0521 210.639 64.9492 211.66C64.3294 212.225 63.6641 212.626 62.9531 212.863C62.1966 213.1 61.1849 213.219 59.918 213.219C58.1042 213.219 56.3861 212.79 54.7637 211.934C54.627 211.87 54.5586 211.683 54.5586 211.373C54.5586 211.309 54.554 210.753 54.5449 209.705C54.5358 208.657 54.5312 208.092 54.5312 208.01C54.5312 207.9 54.627 207.846 54.8184 207.846H55.3789C55.543 207.846 55.6341 207.9 55.6523 208.01C55.6523 208.347 55.6797 208.675 55.7344 208.994C55.8802 209.814 56.304 210.53 57.0059 211.141C57.7168 211.742 58.6966 212.043 59.9453 212.043C61.6406 212.043 62.8073 211.496 63.4453 210.402C63.7188 209.91 63.8555 209.263 63.8555 208.461C63.8555 207.741 63.6048 207.162 63.1035 206.725C62.6113 206.16 61.6406 205.649 60.1914 205.193C58.5781 204.683 57.2839 204.013 56.3086 203.184C55.3333 202.345 54.8457 201.092 54.8457 199.424C54.8457 197.883 55.5247 196.566 56.8828 195.473C57.9401 194.634 59.3118 194.215 60.998 194.215C62.8574 194.215 64.3158 194.625 65.373 195.445C65.5189 195.564 65.6009 195.687 65.6191 195.814C65.7194 196.416 65.7695 197.355 65.7695 198.631C65.7695 198.822 65.7285 198.918 65.6465 198.918H64.9766C64.8763 198.918 64.8125 198.863 64.7852 198.754C64.7122 198.435 64.6165 198.089 64.498 197.715C64.3249 197.159 63.9922 196.708 63.5 196.361C62.6523 195.787 61.5677 195.5 60.2461 195.5C59.2344 195.5 58.4505 195.769 57.8945 196.307C57.2747 196.917 56.9785 197.71 57.0059 198.686C57.0241 199.342 57.3203 199.98 57.8945 200.6C58.1862 200.91 59.2344 201.42 61.0391 202.131C62.1146 202.559 62.8939 202.901 63.377 203.156C64.1882 203.585 64.8717 204.077 65.4277 204.633C66.2116 205.417 66.6035 206.565 66.6035 208.078ZM79.9473 210.758C79.9473 210.895 79.7148 211.136 79.25 211.482C77.7188 212.622 76.1784 213.191 74.6289 213.191C73.3984 213.191 72.4551 213.023 71.7988 212.686C70.7051 212.13 69.8665 211.355 69.2832 210.361C68.7546 209.486 68.4902 208.301 68.4902 206.807C68.4902 205.95 68.6315 205.061 68.9141 204.141C69.2057 203.211 69.8027 202.336 70.7051 201.516C71.6165 200.695 72.9245 200.285 74.6289 200.285C76.1966 200.285 77.4727 200.782 78.457 201.775C79.0768 202.386 79.3867 202.938 79.3867 203.43C79.3867 203.949 79.1908 204.209 78.7988 204.209C78.1335 204.209 77.5638 203.958 77.0898 203.457C76.707 203.047 76.4199 202.505 76.2285 201.83C76.1191 201.465 75.873 201.242 75.4902 201.16C75.1439 201.087 74.8659 201.051 74.6562 201.051C74.082 201.051 73.6901 201.087 73.4805 201.16C72.9062 201.361 72.4277 201.743 72.0449 202.309C71.4707 203.174 71.1836 204.378 71.1836 205.918C71.1836 207.65 71.6484 209.094 72.5781 210.252C73.2891 211.136 74.4284 211.578 75.9961 211.578C77.2357 211.578 78.2839 211.296 79.1406 210.73C79.25 210.667 79.3867 210.576 79.5508 210.457C79.6602 210.348 79.7559 210.366 79.8379 210.512C79.9108 210.585 79.9473 210.667 79.9473 210.758ZM95.875 212.836C95.875 212.945 95.8385 213 95.7656 213H89.8867C89.7956 213 89.75 212.964 89.75 212.891V212.33C89.75 212.239 89.7956 212.193 89.8867 212.193H90.7617C90.862 212.193 90.9349 212.116 90.9805 211.961C91.0898 210.858 91.1445 208.826 91.1445 205.863C91.1445 204.296 90.9577 203.266 90.584 202.773C90.2832 202.382 89.6406 202.186 88.6562 202.186C87.8359 202.186 87.0156 202.327 86.1953 202.609C86.0404 202.664 85.9629 202.787 85.9629 202.979C85.9082 203.37 85.8809 205.517 85.8809 209.418C85.8809 211.268 86.0312 212.193 86.332 212.193H87.8496C87.9408 212.193 87.9863 212.239 87.9863 212.33V212.891C87.9863 212.964 87.9408 213 87.8496 213H81.2871C81.2415 213 81.2051 212.991 81.1777 212.973C81.1595 212.954 81.1504 212.909 81.1504 212.836V212.303C81.1504 212.23 81.196 212.193 81.2871 212.193H82.9414C83.0964 212.193 83.1738 212.107 83.1738 211.934L83.2285 196.143C83.2285 195.313 83.2194 194.83 83.2012 194.693C83.1191 194.055 82.9049 193.736 82.5586 193.736H81.041C80.9954 193.727 80.959 193.718 80.9316 193.709C80.9134 193.691 80.9043 193.641 80.9043 193.559V193.121C80.9043 192.984 80.9499 192.916 81.041 192.916H81.6836C82.8138 192.916 83.7845 192.779 84.5957 192.506C85.4069 192.223 85.8626 192.082 85.9629 192.082C86.0814 192.082 86.1406 192.21 86.1406 192.465C86.1406 192.538 86.1133 194.055 86.0586 197.018C86.013 199.971 85.9902 201.479 85.9902 201.543C85.9902 201.844 86.0495 201.958 86.168 201.885C86.5599 201.62 87.1296 201.301 87.877 200.928C88.6608 200.536 89.3763 200.34 90.0234 200.34C91.2174 200.34 92.1335 200.659 92.7715 201.297C93.5189 202.044 93.8926 203.302 93.8926 205.07C93.8926 205.681 93.8743 206.711 93.8379 208.16C93.8014 209.6 93.7832 210.307 93.7832 210.279C93.7832 211.555 93.8743 212.193 94.0566 212.193H95.7109C95.8203 212.193 95.875 212.221 95.875 212.275V212.836ZM109.93 206.588C109.93 207.818 109.711 208.862 109.273 209.719C108.727 210.831 107.961 211.683 106.977 212.275C105.992 212.868 104.839 213.164 103.518 213.164C102.305 213.164 101.371 213.005 100.715 212.686C99.375 212.02 98.4681 211.218 97.9941 210.279C97.4199 209.14 97.1237 207.946 97.1055 206.697C97.0781 205.321 97.4017 204.09 98.0762 203.006C98.6777 202.04 99.5208 201.311 100.605 200.818C101.462 200.426 102.647 200.23 104.16 200.23C105.363 200.23 106.38 200.472 107.209 200.955C108.166 201.52 108.859 202.29 109.287 203.266C109.715 204.232 109.93 205.339 109.93 206.588ZM107.236 207.258C107.209 205.49 106.781 204.045 105.951 202.924C105.067 201.721 103.982 201.151 102.697 201.215C101.704 201.26 101.025 201.557 100.66 202.104C100.113 202.915 99.8398 204.063 99.8398 205.549C99.8398 207.062 100.132 208.502 100.715 209.869C101.07 210.708 101.553 211.35 102.164 211.797C102.656 212.152 103.244 212.33 103.928 212.33C104.657 212.33 105.208 212.198 105.582 211.934C106.138 211.551 106.566 210.963 106.867 210.17C107.132 209.486 107.255 208.516 107.236 207.258ZM124.559 206.588C124.559 207.818 124.34 208.862 123.902 209.719C123.355 210.831 122.59 211.683 121.605 212.275C120.621 212.868 119.468 213.164 118.146 213.164C116.934 213.164 116 213.005 115.344 212.686C114.004 212.02 113.097 211.218 112.623 210.279C112.049 209.14 111.753 207.946 111.734 206.697C111.707 205.321 112.031 204.09 112.705 203.006C113.307 202.04 114.15 201.311 115.234 200.818C116.091 200.426 117.276 200.23 118.789 200.23C119.992 200.23 121.008 200.472 121.838 200.955C122.795 201.52 123.488 202.29 123.916 203.266C124.344 204.232 124.559 205.339 124.559 206.588ZM121.865 207.258C121.838 205.49 121.41 204.045 120.58 202.924C119.696 201.721 118.611 201.151 117.326 201.215C116.333 201.26 115.654 201.557 115.289 202.104C114.742 202.915 114.469 204.063 114.469 205.549C114.469 207.062 114.76 208.502 115.344 209.869C115.699 210.708 116.182 211.35 116.793 211.797C117.285 212.152 117.873 212.33 118.557 212.33C119.286 212.33 119.837 212.198 120.211 211.934C120.767 211.551 121.195 210.963 121.496 210.17C121.76 209.486 121.883 208.516 121.865 207.258ZM133.131 212.891C133.131 212.964 133.085 213 132.994 213H125.967C125.839 213 125.775 212.954 125.775 212.863V212.357C125.775 212.248 125.83 212.193 125.939 212.193H127.84C128.031 212.193 128.127 212.089 128.127 211.879V196.867C128.127 194.78 127.94 193.736 127.566 193.736H126.131C126.021 193.736 125.967 193.677 125.967 193.559V193.121C125.967 192.984 126.003 192.916 126.076 192.916H127.361C128.072 192.916 128.838 192.816 129.658 192.615C130.333 192.442 130.661 192.355 130.643 192.355C130.843 192.355 130.943 192.488 130.943 192.752C130.943 192.779 130.911 195.477 130.848 200.846C130.784 206.214 130.752 208.994 130.752 209.186C130.752 211.191 130.93 212.193 131.285 212.193H132.994C133.085 212.193 133.131 212.239 133.131 212.33V212.891ZM160.844 212.836C160.844 212.945 160.807 213 160.734 213H152.449C152.34 213 152.285 212.954 152.285 212.863V212.248C152.285 212.148 152.358 212.098 152.504 212.098H154.582C154.755 212.098 154.86 212.052 154.896 211.961C154.933 211.87 154.956 211.583 154.965 211.1C154.983 210.106 154.992 207.668 154.992 203.785C154.992 203.621 154.91 203.539 154.746 203.539H146.365C146.201 203.539 146.119 203.639 146.119 203.84C146.119 206.757 146.128 208.552 146.146 209.227C146.201 211.141 146.415 212.098 146.789 212.098H149.195C149.277 212.098 149.318 212.157 149.318 212.275V212.863C149.318 212.954 149.277 213 149.195 213H140.91C140.828 213 140.778 212.986 140.76 212.959C140.751 212.932 140.746 212.9 140.746 212.863V212.275C140.746 212.157 140.801 212.098 140.91 212.098H142.701C142.929 212.098 143.066 212.052 143.111 211.961C143.157 211.861 143.18 211.574 143.18 211.1C143.18 210.945 143.171 209.732 143.152 207.463C143.134 205.184 143.125 203.922 143.125 203.676C143.125 203.421 143.116 202.436 143.098 200.723C143.079 199 143.07 198.079 143.07 197.961C143.07 196.229 142.911 195.363 142.592 195.363H140.582C140.445 195.363 140.377 195.318 140.377 195.227V194.598C140.377 194.507 140.445 194.461 140.582 194.461H148.73C148.858 194.461 148.922 194.529 148.922 194.666V195.227C148.922 195.318 148.858 195.363 148.73 195.363H146.598C146.297 195.363 146.146 195.482 146.146 195.719C146.146 195.819 146.142 196.867 146.133 198.863C146.124 200.859 146.119 201.93 146.119 202.076C146.119 202.286 146.192 202.391 146.338 202.391H154.719C154.883 202.391 154.965 202.304 154.965 202.131C154.965 202.058 154.96 201.342 154.951 199.984C154.942 198.626 154.938 197.879 154.938 197.742C154.938 196.156 154.751 195.363 154.377 195.363H152.162C152.071 195.363 152.025 195.304 152.025 195.186V194.598C152.025 194.507 152.094 194.461 152.23 194.461H160.461C160.57 194.461 160.625 194.529 160.625 194.666V195.186C160.625 195.304 160.57 195.363 160.461 195.363H158.547C158.273 195.363 158.109 195.386 158.055 195.432C158.009 195.468 157.986 195.614 157.986 195.869C157.986 195.869 157.986 198.275 157.986 203.088C157.986 206.788 157.995 208.926 158.014 209.5C158.077 211.232 158.264 212.098 158.574 212.098H160.68C160.789 212.098 160.844 212.157 160.844 212.275V212.836ZM176.17 212.439C176.17 212.512 176.124 212.576 176.033 212.631C175.596 212.722 175.09 212.836 174.516 212.973C174.333 213.036 174.092 213.137 173.791 213.273C173.682 213.337 173.618 213.369 173.6 213.369C173.527 213.369 173.404 213.301 173.23 213.164C172.893 212.909 172.52 212.294 172.109 211.318C172.064 211.2 171.973 211.191 171.836 211.291C171.49 211.592 170.656 212.107 169.334 212.836C168.833 213.055 167.967 213.164 166.736 213.164C165.943 213.164 165.269 212.84 164.713 212.193C164.193 211.574 163.934 210.863 163.934 210.061V204.77C163.934 202.473 163.738 201.324 163.346 201.324H161.828C161.701 201.324 161.637 201.279 161.637 201.188V200.627C161.637 200.536 161.673 200.49 161.746 200.49H163.51C164.357 200.49 165.041 200.449 165.561 200.367C165.952 200.312 166.24 200.285 166.422 200.285C166.54 200.285 166.6 200.408 166.6 200.654C166.6 200.673 166.59 202.067 166.572 204.838C166.554 207.6 166.545 209.099 166.545 209.336C166.545 210.211 166.682 210.794 166.955 211.086C167.238 211.368 167.78 211.51 168.582 211.51C169.311 211.51 170.036 211.346 170.756 211.018C171.093 210.817 171.435 210.621 171.781 210.43C171.872 210.43 171.918 210.352 171.918 210.197C171.918 210.197 171.918 207.9 171.918 203.307C171.918 202.04 171.749 201.406 171.412 201.406H169.922C169.794 201.406 169.73 201.361 169.73 201.27V200.709C169.73 200.618 169.776 200.572 169.867 200.572H172C172.602 200.572 173.117 200.545 173.545 200.49C173.618 200.472 173.768 200.449 173.996 200.422C174.233 200.395 174.388 200.376 174.461 200.367C174.589 200.349 174.652 200.481 174.652 200.764C174.652 200.8 174.643 202.231 174.625 205.057C174.607 207.873 174.598 209.354 174.598 209.5C174.598 210.803 175.058 211.71 175.979 212.221C176.106 212.294 176.17 212.367 176.17 212.439ZM191.51 206.93C191.51 208.944 190.858 210.539 189.555 211.715C188.37 212.781 186.971 213.314 185.357 213.314C184.1 213.314 182.892 213.05 181.734 212.521C181.206 212.285 180.823 212.166 180.586 212.166C180.249 212.166 180.016 212.649 179.889 213.615C179.87 213.807 179.798 213.902 179.67 213.902H179.383C179.255 213.902 179.191 213.743 179.191 213.424C179.191 213.36 179.201 211.678 179.219 208.379C179.237 205.07 179.246 203.288 179.246 203.033C179.246 201.338 179.255 199.734 179.273 198.221C179.292 196.708 179.301 195.992 179.301 196.074C179.301 194.507 179.096 193.723 178.686 193.723H177.113C177.004 193.723 176.949 193.668 176.949 193.559V193.135C176.949 192.989 176.995 192.916 177.086 192.916H177.592C179.506 192.916 180.814 192.747 181.516 192.41C181.753 192.292 181.93 192.232 182.049 192.232C182.14 192.232 182.186 192.374 182.186 192.656C182.186 192.665 182.145 194.092 182.062 196.936C181.98 199.77 181.939 201.493 181.939 202.104C181.939 202.331 181.985 202.4 182.076 202.309C182.942 201.616 183.557 201.174 183.922 200.982C184.56 200.654 185.289 200.49 186.109 200.49C187.741 200.49 189.058 201.087 190.061 202.281C191.027 203.439 191.51 204.988 191.51 206.93ZM189.076 207.654C189.076 206.068 188.684 204.742 187.9 203.676C187.244 202.783 186.114 202.336 184.51 202.336C183.498 202.336 182.678 202.596 182.049 203.115C181.976 203.188 181.939 203.293 181.939 203.43V208.324C181.939 209.555 182.012 210.544 182.158 211.291C182.222 211.61 182.363 211.824 182.582 211.934C183.211 212.253 184.004 212.412 184.961 212.412C186.164 212.412 187.162 211.993 187.955 211.154C188.702 210.361 189.076 209.195 189.076 207.654ZM211.457 207.627C211.457 209.277 210.532 210.721 208.682 211.961C207.433 212.799 205.715 213.219 203.527 213.219C202.406 213.219 201.344 212.977 200.342 212.494C200.187 212.421 200.109 212.33 200.109 212.221C200.109 212.066 200.141 211.961 200.205 211.906C200.242 211.824 200.305 211.77 200.396 211.742C200.424 211.733 200.583 211.788 200.875 211.906C201.513 212.171 202.333 212.303 203.336 212.303C203.965 212.303 204.562 212.198 205.127 211.988C205.902 211.706 206.435 211.437 206.727 211.182C207.921 210.106 208.518 208.949 208.518 207.709C208.518 206.679 207.993 205.799 206.945 205.07C206.262 204.596 205.104 204.236 203.473 203.99C203.327 203.963 203.254 203.744 203.254 203.334C203.254 203.234 203.441 203.124 203.814 203.006C204.607 202.751 205.428 202.263 206.275 201.543C206.895 201.023 207.205 200.139 207.205 198.891C207.205 198.143 206.977 197.51 206.521 196.99C206.111 196.498 205.46 196.252 204.566 196.252C203.464 196.252 202.456 196.553 201.545 197.154C201.381 197.291 201.24 197.346 201.121 197.318C200.957 197.236 200.848 197.154 200.793 197.072C200.665 196.945 200.647 196.822 200.738 196.703C201.294 195.974 202.001 195.432 202.857 195.076C203.851 194.666 205.008 194.497 206.33 194.57C207.333 194.634 208.162 194.935 208.818 195.473C209.693 196.184 210.117 197.022 210.09 197.988C210.053 199.046 209.475 200.139 208.354 201.27C207.515 202.099 206.936 202.6 206.617 202.773C206.408 202.91 206.435 203.006 206.699 203.061C208.048 203.325 209.137 203.79 209.967 204.455C210.96 205.257 211.457 206.314 211.457 207.627ZM225.936 206.861C225.936 208.365 225.694 209.573 225.211 210.484C224.655 211.523 223.889 212.257 222.914 212.686C222.112 213.041 221.027 213.219 219.66 213.219C218.475 213.219 217.395 212.941 216.42 212.385C215.627 211.929 215.007 211.359 214.561 210.676C213.704 209.363 213.275 207.682 213.275 205.631C213.275 203.644 213.754 201.743 214.711 199.93C215.723 198.016 217.067 196.603 218.744 195.691C220.221 194.889 221.934 194.488 223.885 194.488C225.106 194.488 225.717 194.639 225.717 194.939C225.717 195.149 225.689 195.277 225.635 195.322C225.589 195.368 225.457 195.391 225.238 195.391C224.053 195.391 223.037 195.532 222.189 195.814C220.85 196.252 219.765 196.858 218.936 197.633C217.632 198.845 216.839 199.984 216.557 201.051C216.502 201.26 216.493 201.393 216.529 201.447C216.566 201.502 216.657 201.488 216.803 201.406C217.094 201.251 217.468 201.074 217.924 200.873C218.753 200.518 219.624 200.34 220.535 200.34C221.374 200.34 222.144 200.518 222.846 200.873C223.548 201.219 224.149 201.716 224.65 202.363C225.507 203.457 225.936 204.956 225.936 206.861ZM223.748 208.379C223.748 206.839 223.484 205.562 222.955 204.551C222.436 203.53 221.729 202.874 220.836 202.582C220.326 202.418 219.551 202.336 218.512 202.336C217.701 202.336 216.88 202.568 216.051 203.033C215.941 203.115 215.887 203.257 215.887 203.457C215.85 203.867 215.832 204.428 215.832 205.139C215.832 207.253 216.242 208.857 217.062 209.951C218.138 211.382 219.451 212.098 221 212.098C221.62 212.098 222.098 211.97 222.436 211.715C223.311 211.031 223.748 209.919 223.748 208.379ZM240.77 203.73C240.77 204.97 240.715 205.895 240.605 206.506C240.478 207.281 240.186 208.156 239.73 209.131C239.056 210.58 238.227 211.656 237.242 212.357C236.477 212.895 235.551 213.164 234.467 213.164C233.1 213.164 231.878 212.754 230.803 211.934C230.019 211.341 229.363 210.457 228.834 209.281C228.223 207.896 227.918 206.223 227.918 204.264C227.918 201.365 228.479 198.977 229.6 197.1C230.092 196.27 230.798 195.614 231.719 195.131C232.557 194.702 233.473 194.488 234.467 194.488C236.144 194.488 237.639 195.281 238.951 196.867C240.163 198.344 240.77 200.632 240.77 203.73ZM237.939 205.07C237.939 203.02 237.725 201.297 237.297 199.902C236.841 198.426 236.385 197.432 235.93 196.922C235.346 196.293 234.476 195.969 233.318 195.951C232.708 195.942 232.206 196.229 231.814 196.812C231.377 197.469 231.076 198.303 230.912 199.314C230.766 200.235 230.693 201.183 230.693 202.158C230.693 204.182 230.908 205.977 231.336 207.545C231.928 209.714 232.535 210.972 233.154 211.318C233.738 211.646 234.389 211.824 235.109 211.852C235.775 211.879 236.317 211.61 236.736 211.045C237.11 210.544 237.411 209.669 237.639 208.42C237.839 207.308 237.939 206.191 237.939 205.07Z" fill="black"/>
<defs>
<linearGradient id="paint0_linear_1_121" x1="187.106" y1="54.1039" x2="108.336" y2="112.23" gradientUnits="userSpaceOnUse">
<stop stop-color="#E5B137"/>
<stop offset="0.491667" stop-color="#F27494"/>
<stop offset="1" stop-color="#7642A0"/>
</linearGradient>
<linearGradient id="paint1_linear_1_121" x1="241.71" y1="13.5834" x2="53.3049" y2="152.589" gradientUnits="userSpaceOnUse">
<stop offset="0.196667" stop-color="#E5B137"/>
<stop offset="0.486667" stop-color="#F27494"/>
<stop offset="0.766667" stop-color="#7642A0"/>
</linearGradient>
<linearGradient id="paint2_linear_1_121" x1="76.0091" y1="-7.42764" x2="220.961" y2="176.441" gradientUnits="userSpaceOnUse">
<stop offset="0.196667" stop-color="#E5B137"/>
<stop offset="0.486667" stop-color="#F27494"/>
<stop offset="0.766667" stop-color="#7642A0"/>
</linearGradient>
<linearGradient id="paint3_linear_1_121" x1="148.422" y1="116.114" x2="148.422" y2="159.468" gradientUnits="userSpaceOnUse">
<stop stop-color="#E5B137"/>
<stop offset="0.491667" stop-color="#F27494"/>
<stop offset="1" stop-color="#7642A0"/>
</linearGradient>
</defs>
</svg>
